<svg width="22" height="22" viewBox="0 0 22 22" fill="none" xmlns="http://www.w3.org/2000/svg">
<path d="M10.5001 19.5L15.3601 9.77H12.0001V3.5L7.00012 13.23H10.5001V19.5ZM11.0001 1.5C13.7501 1.5 16.1001 2.5 18.0501 4.45C20.0001 6.4 21.0001 8.75 21.0001 11.5C21.0001 14.25 20.0001 16.6 18.0501 18.55C16.1001 20.5 13.7501 21.5 11.0001 21.5C8.25012 21.5 5.90012 20.5 3.95012 18.55C2.00012 16.6 1.00012 14.25 1.00012 11.5C1.00012 8.75 2.00012 6.4 3.95012 4.45C5.90012 2.5 8.25012 1.5 11.0001 1.5Z" fill="#855DCD"/>
</svg>
