<svg width="24" height="24" viewBox="0 0 24 24" fill="none" xmlns="http://www.w3.org/2000/svg">
<path d="M13.9959 12L19.5824 6.41348C19.8475 6.14881 19.9967 5.78966 19.997 5.41503C19.9973 5.0404 19.8488 4.68099 19.5841 4.41585C19.3195 4.15072 18.9603 4.00158 18.5857 4.00125C18.2111 4.00092 17.8517 4.14942 17.5865 4.41409L12 10.0006L6.41348 4.41409C6.14834 4.14895 5.78874 4 5.41378 4C5.03882 4 4.67922 4.14895 4.41409 4.41409C4.14895 4.67922 4 5.03882 4 5.41378C4 5.78874 4.14895 6.14834 4.41409 6.41348L10.0006 12L4.41409 17.5865C4.14895 17.8517 4 18.2113 4 18.5862C4 18.9612 4.14895 19.3208 4.41409 19.5859C4.67922 19.851 5.03882 20 5.41378 20C5.78874 20 6.14834 19.851 6.41348 19.5859L12 13.9994L17.5865 19.5859C17.8517 19.851 18.2113 20 18.5862 20C18.9612 20 19.3208 19.851 19.5859 19.5859C19.851 19.3208 20 18.9612 20 18.5862C20 18.2113 19.851 17.8517 19.5859 17.5865L13.9959 12Z" fill="black"/>
</svg>
