<svg width="393" height="404" viewBox="0 0 393 404" fill="none" xmlns="http://www.w3.org/2000/svg">
<g opacity="0.48">
<mask id="path-1-inside-1_2066_5507" fill="white">
<path d="M185.869 3C163.166 7.73804 141.55 26.8459 124.416 57.9435C119.31 67.2105 114.685 77.4963 110.612 88.5873C133.59 94.4776 159.013 98.1479 185.869 98.9442V3ZM208.127 3V98.9442C234.983 98.1434 260.405 94.4776 283.384 88.5873C279.311 77.4963 274.686 67.2105 269.58 57.939C252.441 26.8415 230.825 7.74249 208.127 3ZM128.391 13.8107C98.8107 24.5846 72.1897 42.1786 50.6897 65.164C51.4153 65.5777 52.1142 66.0004 52.8532 66.4097C63.6971 72.3712 75.912 77.6831 89.2043 82.2209C93.7626 69.6707 99.011 57.9257 104.918 47.2039C111.818 34.6759 119.693 23.4025 128.391 13.8107ZM265.605 13.8107C274.303 23.4025 282.178 34.6759 289.082 47.2039C294.985 57.9257 300.233 69.6707 304.782 82.2299C318.079 77.692 330.298 72.3756 341.142 66.4052C341.886 66.0004 342.58 65.5777 343.306 65.164C321.805 42.1802 295.184 24.5878 265.605 13.8152M36.2312 82.479C12.7544 113.959 -0.893877 151.67 -3 190.876H69.5953C70.4545 159.622 74.9238 130.06 82.3756 103.446C67.8281 98.4949 54.3222 92.6179 42.1206 85.9002C40.1129 84.7968 38.1721 83.6312 36.2357 82.4745M357.769 82.4745C355.832 83.6312 353.896 84.7879 351.884 85.9002C339.673 92.6179 326.154 98.4994 311.598 103.451C319.023 130.064 323.474 159.627 324.329 190.871H397C394.894 151.665 381.246 113.955 357.769 82.4745ZM103.774 109.826C96.9722 134.282 92.7343 161.744 91.8707 190.871H185.869V121.135C156.685 120.334 128.987 116.397 103.77 109.835M290.226 109.835C265.013 116.397 237.306 120.334 208.127 121.135V190.876H302.129C301.266 161.749 297.028 134.29 290.226 109.835ZM-2.99555 213.12C-0.890723 252.325 12.7559 290.036 36.2312 321.517C38.1676 320.36 40.104 319.203 42.1161 318.091C54.3133 311.382 67.8281 305.501 82.3712 300.54C74.9194 273.931 70.45 244.373 69.5909 213.12H-2.99555ZM91.8663 213.12C92.7299 242.233 96.9633 269.683 103.761 294.129C128.979 287.549 156.676 283.594 185.869 282.789V213.12H91.8663ZM208.127 213.12V282.789C237.32 283.59 265.017 287.549 290.235 294.129C297.032 269.683 301.266 242.233 302.129 213.12H208.127ZM324.333 213.12C323.479 244.364 319.027 273.923 311.602 300.531C326.154 305.492 339.673 311.378 351.879 318.095C353.887 319.199 355.828 320.364 357.764 321.521C381.242 290.039 394.89 252.327 396.996 213.12H324.333ZM185.869 305.051C159.013 305.852 133.59 309.518 110.612 315.408C114.685 326.499 119.31 336.785 124.416 346.056C141.554 377.154 163.171 396.258 185.869 401V305.051ZM208.127 305.051V400.996C230.829 396.258 252.446 377.15 269.58 346.052C274.686 336.785 279.311 326.499 283.384 315.408C260.405 309.518 234.983 305.848 208.127 305.051ZM304.782 321.761C300.228 334.316 294.989 346.065 289.082 356.787C282.178 369.315 274.303 380.589 265.605 390.18C295.185 379.406 321.806 361.812 343.306 338.827C342.58 338.413 341.881 337.991 341.142 337.581C330.298 331.62 318.079 326.299 304.782 321.761ZM89.2043 321.77C75.912 326.308 63.6971 331.615 52.8532 337.586C52.1098 337.991 51.4153 338.413 50.6897 338.827C72.1897 361.812 98.8107 379.406 128.391 390.18C119.693 380.589 111.818 369.315 104.914 356.787C99.011 346.065 93.7626 334.32 89.2043 321.77Z"/>
</mask>
<path d="M185.869 3C163.166 7.73804 141.55 26.8459 124.416 57.9435C119.31 67.2105 114.685 77.4963 110.612 88.5873C133.59 94.4776 159.013 98.1479 185.869 98.9442V3ZM208.127 3V98.9442C234.983 98.1434 260.405 94.4776 283.384 88.5873C279.311 77.4963 274.686 67.2105 269.58 57.939C252.441 26.8415 230.825 7.74249 208.127 3ZM128.391 13.8107C98.8107 24.5846 72.1897 42.1786 50.6897 65.164C51.4153 65.5777 52.1142 66.0004 52.8532 66.4097C63.6971 72.3712 75.912 77.6831 89.2043 82.2209C93.7626 69.6707 99.011 57.9257 104.918 47.2039C111.818 34.6759 119.693 23.4025 128.391 13.8107ZM265.605 13.8107C274.303 23.4025 282.178 34.6759 289.082 47.2039C294.985 57.9257 300.233 69.6707 304.782 82.2299C318.079 77.692 330.298 72.3756 341.142 66.4052C341.886 66.0004 342.58 65.5777 343.306 65.164C321.805 42.1802 295.184 24.5878 265.605 13.8152M36.2312 82.479C12.7544 113.959 -0.893877 151.67 -3 190.876H69.5953C70.4545 159.622 74.9238 130.06 82.3756 103.446C67.8281 98.4949 54.3222 92.6179 42.1206 85.9002C40.1129 84.7968 38.1721 83.6312 36.2357 82.4745M357.769 82.4745C355.832 83.6312 353.896 84.7879 351.884 85.9002C339.673 92.6179 326.154 98.4994 311.598 103.451C319.023 130.064 323.474 159.627 324.329 190.871H397C394.894 151.665 381.246 113.955 357.769 82.4745ZM103.774 109.826C96.9722 134.282 92.7343 161.744 91.8707 190.871H185.869V121.135C156.685 120.334 128.987 116.397 103.77 109.835M290.226 109.835C265.013 116.397 237.306 120.334 208.127 121.135V190.876H302.129C301.266 161.749 297.028 134.29 290.226 109.835ZM-2.99555 213.12C-0.890723 252.325 12.7559 290.036 36.2312 321.517C38.1676 320.36 40.104 319.203 42.1161 318.091C54.3133 311.382 67.8281 305.501 82.3712 300.54C74.9194 273.931 70.45 244.373 69.5909 213.12H-2.99555ZM91.8663 213.12C92.7299 242.233 96.9633 269.683 103.761 294.129C128.979 287.549 156.676 283.594 185.869 282.789V213.12H91.8663ZM208.127 213.12V282.789C237.32 283.59 265.017 287.549 290.235 294.129C297.032 269.683 301.266 242.233 302.129 213.12H208.127ZM324.333 213.12C323.479 244.364 319.027 273.923 311.602 300.531C326.154 305.492 339.673 311.378 351.879 318.095C353.887 319.199 355.828 320.364 357.764 321.521C381.242 290.039 394.89 252.327 396.996 213.12H324.333ZM185.869 305.051C159.013 305.852 133.59 309.518 110.612 315.408C114.685 326.499 119.31 336.785 124.416 346.056C141.554 377.154 163.171 396.258 185.869 401V305.051ZM208.127 305.051V400.996C230.829 396.258 252.446 377.15 269.58 346.052C274.686 336.785 279.311 326.499 283.384 315.408C260.405 309.518 234.983 305.848 208.127 305.051ZM304.782 321.761C300.228 334.316 294.989 346.065 289.082 356.787C282.178 369.315 274.303 380.589 265.605 390.18C295.185 379.406 321.806 361.812 343.306 338.827C342.58 338.413 341.881 337.991 341.142 337.581C330.298 331.62 318.079 326.299 304.782 321.761ZM89.2043 321.77C75.912 326.308 63.6971 331.615 52.8532 337.586C52.1098 337.991 51.4153 338.413 50.6897 338.827C72.1897 361.812 98.8107 379.406 128.391 390.18C119.693 380.589 111.818 369.315 104.914 356.787C99.011 346.065 93.7626 334.32 89.2043 321.77Z" fill="#2B0035" fill-opacity="0.03"/>
<path d="M185.869 3H186.869V1.76976L185.665 2.02109L185.869 3ZM124.416 57.9435L125.292 58.4261V58.4261L124.416 57.9435ZM110.612 88.5873L109.673 88.2425L109.291 89.2812L110.363 89.556L110.612 88.5873ZM185.869 98.9442L185.839 99.9438L186.869 99.9743V98.9442H185.869ZM208.127 3L208.331 2.02114L207.127 1.76947V3H208.127ZM208.127 98.9442H207.127V99.9745L208.156 99.9438L208.127 98.9442ZM283.384 88.5873L283.632 89.556L284.704 89.2812L284.323 88.2425L283.384 88.5873ZM269.58 57.939L270.456 57.4566L270.456 57.4564L269.58 57.939ZM128.391 13.8107L129.132 14.4825L128.049 12.8711L128.391 13.8107ZM50.6897 65.164L49.9594 64.4809L49.0945 65.4055L50.1944 66.0327L50.6897 65.164ZM52.8532 66.4097L52.3687 67.2845L52.3714 67.286L52.8532 66.4097ZM89.2043 82.2209L88.8812 83.1673L89.8094 83.4842L90.1442 82.5623L89.2043 82.2209ZM104.918 47.2039L105.794 47.6865L105.794 47.6864L104.918 47.2039ZM289.082 47.2039L289.958 46.7216L289.958 46.7213L289.082 47.2039ZM304.782 82.2299L303.842 82.5704L304.176 83.4933L305.105 83.1763L304.782 82.2299ZM341.142 66.4052L340.664 65.527L340.66 65.5292L341.142 66.4052ZM343.306 65.164L343.801 66.0327L344.901 65.4055L344.036 64.4809L343.306 65.164ZM-3 190.876L-3.99856 190.822L-4.05516 191.876H-3V190.876ZM69.5953 190.876V191.876H70.5682L70.595 190.903L69.5953 190.876ZM82.3756 103.446L83.3386 103.716L83.5938 102.805L82.6979 102.5L82.3756 103.446ZM42.1206 85.9002L42.6029 85.0241L42.6022 85.0238L42.1206 85.9002ZM357.769 82.4745L358.57 81.8767L358.031 81.1532L357.256 81.616L357.769 82.4745ZM351.884 85.9002L352.366 86.7763L352.368 86.7753L351.884 85.9002ZM311.598 103.451L311.276 102.504L310.38 102.809L310.634 103.72L311.598 103.451ZM324.329 190.871L323.329 190.898L323.356 191.871H324.329V190.871ZM397 190.871V191.871H398.055L397.999 190.818L397 190.871ZM91.8707 190.871L90.8712 190.842L90.8407 191.871H91.8707V190.871ZM185.869 190.871V191.871H186.869V190.871H185.869ZM185.869 121.135H186.869V120.162L185.896 120.136L185.869 121.135ZM290.226 109.835L291.189 109.567L290.926 108.62L289.974 108.867L290.226 109.835ZM208.127 121.135L208.099 120.136L207.127 120.162V121.135H208.127ZM208.127 190.876H207.127V191.876H208.127V190.876ZM302.129 190.876V191.876H303.159L303.129 190.846L302.129 190.876ZM-2.99555 213.12V212.12H-4.05068L-3.99411 213.174L-2.99555 213.12ZM36.2312 321.517L35.4296 322.114L35.9691 322.838L36.744 322.375L36.2312 321.517ZM42.1161 318.091L41.6342 317.215L41.6324 317.216L42.1161 318.091ZM82.3712 300.54L82.694 301.487L83.5892 301.181L83.3342 300.27L82.3712 300.54ZM69.5909 213.12L70.5905 213.092L70.5638 212.12H69.5909V213.12ZM91.8663 213.12V212.12H90.8362L90.8667 213.15L91.8663 213.12ZM103.761 294.129L102.797 294.397L103.061 295.345L104.013 295.097L103.761 294.129ZM185.869 282.789L185.897 283.789L186.869 283.762V282.789H185.869ZM185.869 213.12H186.869V212.12H185.869V213.12ZM208.127 213.12V212.12H207.127V213.12H208.127ZM208.127 282.789H207.127V283.762L208.099 283.789L208.127 282.789ZM290.235 294.129L289.982 295.097L290.935 295.345L291.198 294.397L290.235 294.129ZM302.129 213.12L303.129 213.15L303.159 212.12H302.129V213.12ZM324.333 213.12V212.12H323.36L323.334 213.093L324.333 213.12ZM311.602 300.531L310.639 300.262L310.385 301.173L311.279 301.478L311.602 300.531ZM351.879 318.095L351.397 318.971L351.398 318.972L351.879 318.095ZM357.764 321.521L357.251 322.379L358.026 322.842L358.566 322.119L357.764 321.521ZM396.996 213.12L397.994 213.174L398.051 212.12H396.996V213.12ZM185.869 305.051H186.869V304.021L185.839 304.052L185.869 305.051ZM110.612 315.408L110.363 314.44L109.291 314.714L109.673 315.753L110.612 315.408ZM124.416 346.056L123.54 346.539L123.54 346.539L124.416 346.056ZM185.869 401L185.664 401.979L186.869 402.231V401H185.869ZM208.127 305.051L208.156 304.052L207.127 304.021V305.051H208.127ZM208.127 400.996H207.127V402.226L208.331 401.974L208.127 400.996ZM269.58 346.052L268.704 345.569L269.58 346.052ZM283.384 315.408L284.323 315.753L284.704 314.714L283.632 314.44L283.384 315.408ZM304.782 321.761L305.105 320.815L304.177 320.498L303.842 321.42L304.782 321.761ZM289.082 356.787L289.958 357.27L289.958 357.27L289.082 356.787ZM265.605 390.18L264.864 389.509L265.947 391.12L265.605 390.18ZM343.306 338.827L344.036 339.51L344.901 338.586L343.801 337.958L343.306 338.827ZM341.142 337.581L341.627 336.707L341.624 336.705L341.142 337.581ZM89.2043 321.77L90.1442 321.429L89.8094 320.507L88.8812 320.824L89.2043 321.77ZM52.8532 337.586L53.3315 338.464L53.3355 338.462L52.8532 337.586ZM50.6897 338.827L50.1944 337.958L49.0945 338.586L49.9594 339.51L50.6897 338.827ZM128.391 390.18L128.049 391.12L129.132 389.509L128.391 390.18ZM104.914 356.787L104.038 357.269L104.038 357.27L104.914 356.787ZM185.665 2.02109C162.558 6.84341 140.743 26.2372 123.54 57.4609L125.292 58.4261C142.356 27.4547 163.774 8.63268 186.073 3.97891L185.665 2.02109ZM123.54 57.4609C118.407 66.7775 113.761 77.1101 109.673 88.2425L111.55 88.932C115.608 77.8824 120.213 67.6434 125.292 58.4261L123.54 57.4609ZM110.363 89.556C133.416 95.4652 158.912 99.1453 185.839 99.9438L185.899 97.9447C159.114 97.1505 133.765 93.4899 110.86 87.6186L110.363 89.556ZM186.869 98.9442V3H184.869V98.9442H186.869ZM207.127 3V98.9442H209.127V3H207.127ZM208.156 99.9438C235.083 99.1409 260.579 95.4652 283.632 89.556L283.136 87.6186C260.231 93.4899 234.882 97.146 208.097 97.9447L208.156 99.9438ZM284.323 88.2425C280.234 77.1101 275.589 66.7776 270.456 57.4566L268.704 58.4214C273.782 67.6434 278.387 77.8824 282.445 88.932L284.323 88.2425ZM270.456 57.4564C253.248 26.2325 231.433 6.84793 208.331 2.02114L207.922 3.97886C230.217 8.63705 251.635 27.4505 268.704 58.4217L270.456 57.4564ZM128.049 12.8711C98.3208 23.6988 71.5668 41.3806 49.9594 64.4809L51.4201 65.8471C72.8126 42.9765 99.3006 25.4704 128.733 14.7504L128.049 12.8711ZM50.1944 66.0327C50.8824 66.425 51.6309 66.8759 52.3687 67.2845L53.3377 65.5349C52.5975 65.1249 51.9483 64.7305 51.1851 64.2953L50.1944 66.0327ZM52.3714 67.286C63.2724 73.2789 75.5414 78.6132 88.8812 83.1673L89.5274 81.2746C76.2827 76.753 64.1218 71.4635 53.3349 65.5334L52.3714 67.286ZM90.1442 82.5623C94.687 70.0548 99.9147 58.3577 105.794 47.6865L104.042 46.7214C98.1073 57.4937 92.8382 69.2866 88.2644 81.8796L90.1442 82.5623ZM105.794 47.6864C112.662 35.2167 120.493 24.0089 129.132 14.4825L127.65 13.139C118.893 22.7961 110.974 34.1351 104.042 46.7215L105.794 47.6864ZM264.864 14.4825C273.503 24.0089 281.334 35.2168 288.206 47.6866L289.958 46.7213C283.021 34.1351 275.103 22.7961 266.345 13.139L264.864 14.4825ZM288.206 47.6862C294.081 58.3576 299.308 70.0546 303.842 82.5704L305.723 81.8893C301.157 69.2868 295.888 57.4938 289.958 46.7216L288.206 47.6862ZM305.105 83.1763C318.45 78.6221 330.723 73.2832 341.625 67.2812L340.66 65.5292C329.874 71.468 317.708 76.7619 304.459 81.2834L305.105 83.1763ZM341.621 67.2834C342.371 66.875 343.113 66.4254 343.801 66.0327L342.81 64.2953C342.048 64.7301 341.401 65.1258 340.664 65.527L341.621 67.2834ZM344.036 64.4809C322.428 41.3822 295.674 23.7019 265.947 12.8756L265.262 14.7548C294.695 25.4736 321.182 42.9782 342.576 65.8471L344.036 64.4809ZM35.4296 81.8812C11.8349 113.52 -1.88186 151.419 -3.99856 190.822L-2.00144 190.929C0.0941067 151.92 13.6738 114.399 37.0329 83.0768L35.4296 81.8812ZM-3 191.876H69.5953V189.876H-3V191.876ZM70.595 190.903C71.452 159.726 75.9102 130.245 83.3386 103.716L81.4127 103.177C73.9374 129.874 69.457 159.518 68.5957 190.848L70.595 190.903ZM82.6979 102.5C68.1994 97.5649 54.7478 91.7107 42.6029 85.0241L41.6383 86.7762C53.8965 93.5251 67.4568 99.4249 82.0534 104.393L82.6979 102.5ZM42.6022 85.0238C40.6136 83.9309 38.6894 82.7754 36.7485 81.616L35.7229 83.333C37.6548 84.4871 39.6123 85.6628 41.639 86.7765L42.6022 85.0238ZM357.256 81.616C355.317 82.7741 353.395 83.9222 351.4 85.025L352.368 86.7753C354.397 85.6537 356.347 84.4884 358.282 83.333L357.256 81.616ZM351.402 85.024C339.248 91.7107 325.783 97.5694 311.276 102.504L311.92 104.398C326.525 99.4294 340.099 93.5252 352.366 86.7763L351.402 85.024ZM310.634 103.72C318.036 130.249 322.477 159.73 323.329 190.898L325.329 190.844C324.472 159.523 320.009 129.879 312.561 103.182L310.634 103.72ZM324.329 191.871H397V189.871H324.329V191.871ZM397.999 190.818C395.882 151.415 382.165 113.515 358.57 81.8767L356.967 83.0724C380.326 114.395 393.906 151.916 396.001 190.925L397.999 190.818ZM102.811 109.558C95.9862 134.095 91.7371 161.638 90.8712 190.842L92.8703 190.901C93.7316 161.851 97.9582 134.468 104.738 110.094L102.811 109.558ZM91.8707 191.871H185.869V189.871H91.8707V191.871ZM186.869 190.871V121.135H184.869V190.871H186.869ZM185.896 120.136C156.784 119.337 129.162 115.409 104.021 108.867L103.518 110.803C128.813 117.385 156.586 121.332 185.842 122.135L185.896 120.136ZM289.974 108.867C264.838 115.409 237.207 119.337 208.099 120.136L208.154 122.135C237.405 121.332 265.187 117.385 290.478 110.803L289.974 108.867ZM207.127 121.135V190.876H209.127V121.135H207.127ZM208.127 191.876H302.129V189.876H208.127V191.876ZM303.129 190.846C302.263 161.642 298.014 134.104 291.189 109.567L289.262 110.103C296.042 134.477 300.268 161.855 301.13 190.905L303.129 190.846ZM-3.99411 213.174C-1.87871 252.576 11.8365 290.475 35.4296 322.114L37.0329 320.919C13.6754 289.596 0.0972691 252.075 -1.99699 213.066L-3.99411 213.174ZM36.744 322.375C38.6826 321.217 40.6049 320.069 42.5999 318.966L41.6324 317.216C39.6032 318.337 37.6526 319.503 35.7184 320.658L36.744 322.375ZM42.5981 318.967C54.7388 312.289 68.1996 306.43 82.694 301.487L82.0484 299.594C67.4566 304.571 53.8877 310.475 41.6342 317.215L42.5981 318.967ZM83.3342 300.27C75.9058 273.746 71.4475 244.269 70.5905 213.092L68.5913 213.147C69.4525 244.477 73.9329 274.117 81.4082 300.81L83.3342 300.27ZM69.5909 212.12H-2.99555V214.12H69.5909V212.12ZM90.8667 213.15C91.7326 242.34 95.9772 269.869 102.797 294.397L104.724 293.861C97.9493 269.496 93.7272 242.127 92.8658 213.09L90.8667 213.15ZM104.013 295.097C129.154 288.537 156.775 284.592 185.897 283.789L185.841 281.79C156.577 282.597 128.803 286.562 103.508 293.162L104.013 295.097ZM186.869 282.789V213.12H184.869V282.789H186.869ZM185.869 212.12H91.8663V214.12H185.869V212.12ZM207.127 213.12V282.789H209.127V213.12H207.127ZM208.099 283.789C237.22 284.588 264.842 288.537 289.982 295.097L290.487 293.162C265.192 286.562 237.419 282.592 208.154 281.79L208.099 283.789ZM291.198 294.397C298.018 269.869 302.263 242.34 303.129 213.15L301.13 213.09C300.268 242.127 296.046 269.496 289.271 293.861L291.198 294.397ZM302.129 212.12H208.127V214.12H302.129V212.12ZM323.334 213.093C322.481 244.261 318.041 273.737 310.639 300.262L312.565 300.8C320.014 274.108 324.476 244.468 325.333 213.147L323.334 213.093ZM311.279 301.478C325.783 306.422 339.248 312.285 351.397 318.971L352.362 317.219C340.099 310.47 326.526 304.562 311.925 299.585L311.279 301.478ZM351.398 318.972C353.386 320.065 355.311 321.22 357.251 322.379L358.277 320.663C356.345 319.508 354.388 318.333 352.361 317.219L351.398 318.972ZM358.566 322.119C382.161 290.479 395.878 252.578 397.994 213.174L395.997 213.066C393.902 252.077 380.323 289.599 356.963 320.923L358.566 322.119ZM396.996 212.12H324.333V214.12H396.996V212.12ZM185.839 304.052C158.912 304.855 133.416 308.53 110.363 314.44L110.86 316.377C133.765 310.506 159.114 306.85 185.899 306.051L185.839 304.052ZM109.673 315.753C113.761 326.885 118.407 337.218 123.54 346.539L125.292 345.574C120.213 336.352 115.608 326.113 111.55 315.064L109.673 315.753ZM123.54 346.539C140.748 377.763 162.563 397.152 185.664 401.979L186.074 400.021C163.779 395.363 142.36 376.545 125.292 345.574L123.54 346.539ZM186.869 401V305.051H184.869V401H186.869ZM207.127 305.051V400.996H209.127V305.051H207.127ZM208.331 401.974C231.437 397.152 253.252 377.758 270.456 346.535L268.704 345.569C251.64 376.541 230.221 395.363 207.922 400.017L208.331 401.974ZM270.456 346.535C275.589 337.218 280.234 326.885 284.323 315.753L282.445 315.064C278.387 326.113 273.782 336.352 268.704 345.569L270.456 346.535ZM283.632 314.44C260.58 308.53 235.084 304.85 208.156 304.052L208.097 306.051C234.882 306.845 260.231 310.506 283.136 316.377L283.632 314.44ZM303.842 321.42C299.304 333.932 294.085 345.634 288.206 356.305L289.958 357.27C295.893 346.497 301.153 334.699 305.722 322.102L303.842 321.42ZM288.206 356.305C281.334 368.774 273.503 379.982 264.864 389.509L266.345 390.852C275.103 381.195 283.021 369.856 289.958 357.27L288.206 356.305ZM265.947 391.12C295.675 380.292 322.429 362.61 344.036 339.51L342.575 338.144C321.183 361.015 294.695 378.521 265.262 389.241L265.947 391.12ZM343.801 337.958C343.113 337.566 342.365 337.115 341.627 336.707L340.658 338.456C341.398 338.866 342.047 339.261 342.81 339.696L343.801 337.958ZM341.624 336.705C330.723 330.712 318.45 325.369 305.105 320.815L304.459 322.708C317.708 327.229 329.874 332.527 340.661 338.458L341.624 336.705ZM88.8812 320.824C75.5416 325.378 63.2724 330.708 52.3709 336.71L53.3355 338.462C64.1218 332.523 76.2825 327.238 89.5274 322.716L88.8812 320.824ZM52.3749 336.708C51.6249 337.116 50.883 337.566 50.1944 337.958L51.1851 339.696C51.9477 339.261 52.5946 338.865 53.3314 338.464L52.3749 336.708ZM49.9594 339.51C71.5668 362.61 98.3208 380.292 128.049 391.12L128.733 389.241C99.3006 378.521 72.8126 361.015 51.4201 338.144L49.9594 339.51ZM129.132 389.509C120.493 379.982 112.662 368.774 105.789 356.305L104.038 357.27C110.974 369.856 118.893 381.195 127.65 390.852L129.132 389.509ZM105.79 356.305C99.9147 345.633 94.687 333.936 90.1442 321.429L88.2644 322.112C92.8382 334.704 98.1072 346.497 104.038 357.269L105.79 356.305Z" fill="#BD44D9" fill-opacity="0.32" mask="url(#path-1-inside-1_2066_5507)"/>
</g>
</svg>
