<svg width="571" height="532" viewBox="0 0 571 532" fill="none" xmlns="http://www.w3.org/2000/svg">
<mask id="path-1-inside-1_2068_5991" fill="white">
<path d="M296.752 17C267.693 23.0714 240.024 47.5563 218.092 87.405C211.557 99.2798 205.637 112.46 200.423 126.672C229.836 134.22 262.377 138.923 296.752 139.944V17ZM325.242 17V139.944C359.618 138.917 392.159 134.22 421.571 126.672C416.358 112.46 410.438 99.2798 403.902 87.3993C381.965 47.5506 354.296 23.0771 325.242 17ZM223.18 30.853C185.318 44.6586 151.243 67.2037 123.723 96.6574C124.652 97.1876 125.546 97.7291 126.492 98.2536C140.372 105.893 156.007 112.699 173.021 118.514C178.856 102.432 185.574 87.3822 193.135 73.6432C201.967 57.5898 212.047 43.1439 223.18 30.853ZM398.814 30.853C409.948 43.1439 420.027 57.5898 428.865 73.6432C436.42 87.3822 443.138 102.432 448.961 118.526C465.981 112.711 481.622 105.898 495.502 98.2479C496.454 97.7291 497.343 97.1876 498.271 96.6574C470.751 67.2058 436.676 44.6627 398.814 30.8587M105.216 118.845C75.1656 159.184 57.6958 207.507 55 257.745H147.922C149.022 217.697 154.742 179.815 164.281 145.713C145.66 139.368 128.372 131.837 112.754 123.229C110.185 121.815 107.7 120.321 105.222 118.839M516.784 118.839C514.305 120.321 511.827 121.804 509.251 123.229C493.622 131.837 476.317 139.374 457.685 145.719C467.189 179.821 472.887 217.703 473.981 257.739H567C564.304 207.501 546.834 159.179 516.784 118.839ZM191.671 153.888C182.964 185.225 177.54 220.416 176.435 257.739H296.752V168.379C259.397 167.353 223.944 162.308 191.665 153.899M430.329 153.899C398.056 162.308 362.592 167.353 325.242 168.379V257.745H445.565C444.46 220.422 439.036 185.237 430.329 153.899ZM55.0057 286.249C57.6999 336.487 75.1676 384.809 105.216 425.149C107.695 423.667 110.173 422.185 112.749 420.76C128.361 412.163 145.66 404.626 164.275 398.27C154.737 364.174 149.016 326.297 147.916 286.249H55.0057ZM176.429 286.249C177.534 323.555 182.953 358.729 191.654 390.055C223.933 381.624 259.385 376.556 296.752 375.524V286.249H176.429ZM325.242 286.249V375.524C362.609 376.55 398.062 381.624 430.341 390.055C439.041 358.729 444.46 323.555 445.565 286.249H325.242ZM473.987 286.249C472.893 326.286 467.195 364.162 457.691 398.259C476.317 404.615 493.622 412.157 509.246 420.765C511.815 422.179 514.3 423.673 516.778 425.155C546.83 384.814 564.3 336.49 566.994 286.249H473.987ZM296.752 404.051C262.377 405.077 229.836 409.774 200.423 417.322C205.637 431.534 211.557 444.715 218.092 456.595C240.029 496.444 267.699 520.923 296.752 527V404.051ZM325.242 404.051V526.994C354.302 520.923 381.971 496.438 403.902 456.589C410.438 444.715 416.358 431.534 421.571 417.322C392.159 409.774 359.618 405.071 325.242 404.051ZM448.961 425.463C443.132 441.551 436.426 456.606 428.865 470.345C420.027 486.399 409.948 500.845 398.814 513.136C436.677 499.33 470.751 476.785 498.271 447.331C497.343 446.801 496.448 446.259 495.502 445.735C481.622 438.096 465.981 431.278 448.961 425.463ZM173.021 425.474C156.007 431.289 140.372 438.09 126.492 445.741C125.541 446.259 124.652 446.801 123.723 447.331C151.243 476.785 185.318 499.33 223.18 513.136C212.047 500.845 201.967 486.399 193.13 470.345C185.574 456.606 178.856 441.556 173.021 425.474Z"/>
</mask>
<path d="M296.752 17C267.693 23.0714 240.024 47.5563 218.092 87.405C211.557 99.2798 205.637 112.46 200.423 126.672C229.836 134.22 262.377 138.923 296.752 139.944V17ZM325.242 17V139.944C359.618 138.917 392.159 134.22 421.571 126.672C416.358 112.46 410.438 99.2798 403.902 87.3993C381.965 47.5506 354.296 23.0771 325.242 17ZM223.18 30.853C185.318 44.6586 151.243 67.2037 123.723 96.6574C124.652 97.1876 125.546 97.7291 126.492 98.2536C140.372 105.893 156.007 112.699 173.021 118.514C178.856 102.432 185.574 87.3822 193.135 73.6432C201.967 57.5898 212.047 43.1439 223.18 30.853ZM398.814 30.853C409.948 43.1439 420.027 57.5898 428.865 73.6432C436.42 87.3822 443.138 102.432 448.961 118.526C465.981 112.711 481.622 105.898 495.502 98.2479C496.454 97.7291 497.343 97.1876 498.271 96.6574C470.751 67.2058 436.676 44.6627 398.814 30.8587M105.216 118.845C75.1656 159.184 57.6958 207.507 55 257.745H147.922C149.022 217.697 154.742 179.815 164.281 145.713C145.66 139.368 128.372 131.837 112.754 123.229C110.185 121.815 107.7 120.321 105.222 118.839M516.784 118.839C514.305 120.321 511.827 121.804 509.251 123.229C493.622 131.837 476.317 139.374 457.685 145.719C467.189 179.821 472.887 217.703 473.981 257.739H567C564.304 207.501 546.834 159.179 516.784 118.839ZM191.671 153.888C182.964 185.225 177.54 220.416 176.435 257.739H296.752V168.379C259.397 167.353 223.944 162.308 191.665 153.899M430.329 153.899C398.056 162.308 362.592 167.353 325.242 168.379V257.745H445.565C444.46 220.422 439.036 185.237 430.329 153.899ZM55.0057 286.249C57.6999 336.487 75.1676 384.809 105.216 425.149C107.695 423.667 110.173 422.185 112.749 420.76C128.361 412.163 145.66 404.626 164.275 398.27C154.737 364.174 149.016 326.297 147.916 286.249H55.0057ZM176.429 286.249C177.534 323.555 182.953 358.729 191.654 390.055C223.933 381.624 259.385 376.556 296.752 375.524V286.249H176.429ZM325.242 286.249V375.524C362.609 376.55 398.062 381.624 430.341 390.055C439.041 358.729 444.46 323.555 445.565 286.249H325.242ZM473.987 286.249C472.893 326.286 467.195 364.162 457.691 398.259C476.317 404.615 493.622 412.157 509.246 420.765C511.815 422.179 514.3 423.673 516.778 425.155C546.83 384.814 564.3 336.49 566.994 286.249H473.987ZM296.752 404.051C262.377 405.077 229.836 409.774 200.423 417.322C205.637 431.534 211.557 444.715 218.092 456.595C240.029 496.444 267.699 520.923 296.752 527V404.051ZM325.242 404.051V526.994C354.302 520.923 381.971 496.438 403.902 456.589C410.438 444.715 416.358 431.534 421.571 417.322C392.159 409.774 359.618 405.071 325.242 404.051ZM448.961 425.463C443.132 441.551 436.426 456.606 428.865 470.345C420.027 486.399 409.948 500.845 398.814 513.136C436.677 499.33 470.751 476.785 498.271 447.331C497.343 446.801 496.448 446.259 495.502 445.735C481.622 438.096 465.981 431.278 448.961 425.463ZM173.021 425.474C156.007 431.289 140.372 438.09 126.492 445.741C125.541 446.259 124.652 446.801 123.723 447.331C151.243 476.785 185.318 499.33 223.18 513.136C212.047 500.845 201.967 486.399 193.13 470.345C185.574 456.606 178.856 441.556 173.021 425.474Z" fill="#2B0035" fill-opacity="0.03"/>
<path d="M296.752 17H297.252V16.3847L296.65 16.5106L296.752 17ZM218.092 87.405L218.53 87.6461V87.6461L218.092 87.405ZM200.423 126.672L199.953 126.5L199.763 127.019L200.299 127.156L200.423 126.672ZM296.752 139.944L296.737 140.443L297.252 140.459V139.944H296.752ZM325.242 17L325.344 16.5106L324.742 16.3846V17H325.242ZM325.242 139.944H324.742V140.459L325.257 140.443L325.242 139.944ZM421.571 126.672L421.696 127.156L422.231 127.019L422.041 126.5L421.571 126.672ZM403.902 87.3993L404.34 87.1583L404.34 87.1581L403.902 87.3993ZM223.18 30.853L223.551 31.1886L223.009 30.3832L223.18 30.853ZM123.723 96.6574L123.358 96.316L122.926 96.7781L123.475 97.0916L123.723 96.6574ZM126.492 98.2536L126.25 98.6909L126.251 98.6917L126.492 98.2536ZM173.021 118.514L172.86 118.987L173.324 119.146L173.492 118.685L173.021 118.514ZM193.135 73.6432L193.573 73.8843L193.573 73.8842L193.135 73.6432ZM428.865 73.6432L429.303 73.4023L429.303 73.4021L428.865 73.6432ZM448.961 118.526L448.491 118.696L448.658 119.158L449.123 118.999L448.961 118.526ZM495.502 98.2479L495.263 97.8089L495.261 97.81L495.502 98.2479ZM498.271 96.6574L498.519 97.0916L499.069 96.7781L498.637 96.316L498.271 96.6574ZM55 257.745L54.5007 257.718L54.4725 258.245H55V257.745ZM147.922 257.745V258.245H148.409L148.422 257.759L147.922 257.745ZM164.281 145.713L164.762 145.848L164.89 145.392L164.442 145.24L164.281 145.713ZM112.754 123.229L112.996 122.791L112.995 122.791L112.754 123.229ZM516.784 118.839L517.185 118.541L516.915 118.178L516.527 118.41L516.784 118.839ZM509.251 123.229L509.493 123.667L509.493 123.666L509.251 123.229ZM457.685 145.719L457.524 145.245L457.077 145.398L457.203 145.853L457.685 145.719ZM473.981 257.739L473.481 257.753L473.495 258.239H473.981V257.739ZM567 257.739V258.239H567.528L567.499 257.713L567 257.739ZM176.435 257.739L175.935 257.725L175.92 258.239H176.435V257.739ZM296.752 257.739V258.239H297.252V257.739H296.752ZM296.752 168.379H297.252V167.893L296.766 167.879L296.752 168.379ZM430.329 153.899L430.811 153.765L430.679 153.291L430.203 153.415L430.329 153.899ZM325.242 168.379L325.228 167.879L324.742 167.893V168.379H325.242ZM325.242 257.745H324.742V258.245H325.242V257.745ZM445.565 257.745V258.245H446.08L446.065 257.73L445.565 257.745ZM55.0057 286.249V285.749H54.4782L54.5064 286.276L55.0057 286.249ZM105.216 425.149L104.815 425.448L105.085 425.81L105.473 425.578L105.216 425.149ZM112.749 420.76L112.507 420.322L112.507 420.322L112.749 420.76ZM164.275 398.27L164.437 398.743L164.884 398.591L164.757 398.135L164.275 398.27ZM147.916 286.249L148.416 286.235L148.403 285.749H147.916V286.249ZM176.429 286.249V285.749H175.914L175.929 286.264L176.429 286.249ZM191.654 390.055L191.172 390.189L191.304 390.663L191.78 390.539L191.654 390.055ZM296.752 375.524L296.766 376.024L297.252 376.01V375.524H296.752ZM296.752 286.249H297.252V285.749H296.752V286.249ZM325.242 286.249V285.749H324.742V286.249H325.242ZM325.242 375.524H324.742V376.01L325.228 376.024L325.242 375.524ZM430.341 390.055L430.214 390.539L430.691 390.663L430.822 390.189L430.341 390.055ZM445.565 286.249L446.065 286.264L446.08 285.749H445.565V286.249ZM473.987 286.249V285.749H473.5L473.487 286.236L473.987 286.249ZM457.691 398.259L457.209 398.124L457.082 398.579L457.529 398.732L457.691 398.259ZM509.246 420.765L509.004 421.203L509.005 421.204L509.246 420.765ZM516.778 425.155L516.522 425.584L516.909 425.816L517.179 425.454L516.778 425.155ZM566.994 286.249L567.494 286.276L567.522 285.749H566.994V286.249ZM296.752 404.051H297.252V403.536L296.737 403.551L296.752 404.051ZM200.423 417.322L200.299 416.838L199.763 416.975L199.953 417.494L200.423 417.322ZM218.092 456.595L217.654 456.836L217.654 456.836L218.092 456.595ZM296.752 527L296.65 527.489L297.252 527.615V527H296.752ZM325.242 404.051L325.257 403.551L324.742 403.536V404.051H325.242ZM325.242 526.994H324.742V527.61L325.344 527.484L325.242 526.994ZM403.902 456.589L403.464 456.348V456.348L403.902 456.589ZM421.571 417.322L422.041 417.494L422.231 416.975L421.696 416.838L421.571 417.322ZM448.961 425.463L449.123 424.99L448.659 424.831L448.491 425.293L448.961 425.463ZM428.865 470.345L429.303 470.587L429.303 470.586L428.865 470.345ZM398.814 513.136L398.443 512.8L398.985 513.605L398.814 513.136ZM498.271 447.331L498.637 447.673L499.069 447.21L498.519 446.897L498.271 447.331ZM495.502 445.735L495.745 445.298L495.743 445.297L495.502 445.735ZM173.021 425.474L173.492 425.304L173.324 424.842L172.86 425.001L173.021 425.474ZM126.492 445.741L126.731 446.18L126.733 446.179L126.492 445.741ZM123.723 447.331L123.475 446.897L122.926 447.21L123.358 447.673L123.723 447.331ZM223.18 513.136L223.009 513.605L223.551 512.8L223.18 513.136ZM193.13 470.345L192.691 470.586L192.691 470.587L193.13 470.345ZM296.65 16.5106C267.389 22.6241 239.62 47.2523 217.654 87.1639L218.53 87.6461C240.427 47.8604 267.997 23.5186 296.855 17.4894L296.65 16.5106ZM217.654 87.1639C211.105 99.0635 205.175 112.267 199.953 126.5L200.892 126.844C206.098 112.653 212.008 99.496 218.53 87.6461L217.654 87.1639ZM200.299 127.156C229.748 134.714 262.326 139.422 296.737 140.443L296.767 139.444C262.427 138.424 229.923 133.726 200.547 126.188L200.299 127.156ZM297.252 139.944V17H296.252V139.944H297.252ZM324.742 17V139.944H325.742V17H324.742ZM325.257 140.443C359.668 139.416 392.246 134.714 421.696 127.156L421.447 126.188C392.071 133.726 359.567 138.419 325.227 139.444L325.257 140.443ZM422.041 126.5C416.82 112.267 410.889 99.0635 404.34 87.1583L403.464 87.6403C409.986 99.496 415.896 112.653 421.102 126.844L422.041 126.5ZM404.34 87.1581C382.368 47.2464 354.6 22.6299 325.344 16.5106L325.14 17.4894C353.992 23.5242 381.562 47.8548 403.464 87.6404L404.34 87.1581ZM223.009 30.3832C185.072 44.2158 150.931 66.8049 123.358 96.316L124.088 96.9987C151.554 67.6025 185.563 45.1014 223.352 31.3227L223.009 30.3832ZM123.475 97.0916C124.385 97.6111 125.304 98.1668 126.25 98.6909L126.735 97.8164C125.788 97.2915 124.918 96.7641 123.971 96.2232L123.475 97.0916ZM126.251 98.6917C140.16 106.346 155.822 113.164 172.86 118.987L173.183 118.041C156.193 112.234 140.585 105.439 126.733 97.8156L126.251 98.6917ZM173.492 118.685C179.318 102.624 186.026 87.598 193.573 73.8843L192.697 73.4022C185.122 87.1664 178.394 102.24 172.551 118.344L173.492 118.685ZM193.573 73.8842C202.389 57.8599 212.447 43.4469 223.551 31.1886L222.81 30.5173C211.646 42.8409 201.545 57.3196 192.697 73.4022L193.573 73.8842ZM398.443 31.1886C409.547 43.4469 419.605 57.86 428.427 73.8844L429.303 73.4021C420.449 57.3195 410.348 42.8409 399.184 30.5173L398.443 31.1886ZM428.427 73.8842C435.968 87.5979 442.676 102.624 448.491 118.696L449.432 118.356C443.6 102.241 436.872 87.1664 429.303 73.4023L428.427 73.8842ZM449.123 118.999C466.167 113.176 481.835 106.352 495.744 98.6858L495.261 97.81C481.409 105.445 465.796 112.246 448.8 118.053L449.123 118.999ZM495.742 98.6869C496.696 98.1663 497.609 97.6112 498.519 97.0916L498.024 96.2232C497.076 96.7639 496.211 97.2919 495.263 97.8089L495.742 98.6869ZM498.637 96.316C471.062 66.8069 436.921 44.2199 398.985 30.3889L398.643 31.3284C436.431 45.1055 470.439 67.6046 497.906 96.9988L498.637 96.316ZM104.815 118.546C74.7058 158.965 57.2018 207.381 54.5007 257.718L55.4993 257.772C58.1898 207.632 75.6254 159.404 105.617 119.144L104.815 118.546ZM55 258.245H147.922V257.245H55V258.245ZM148.422 257.759C149.521 217.749 155.236 179.908 164.762 145.848L163.799 145.578C154.249 179.722 148.523 217.645 147.422 257.731L148.422 257.759ZM164.442 145.24C145.846 138.903 128.585 131.384 112.996 122.791L112.513 123.667C128.159 132.291 145.474 139.833 164.12 146.186L164.442 145.24ZM112.995 122.791C110.435 121.382 107.959 119.894 105.478 118.41L104.965 119.268C107.441 120.749 109.934 122.248 112.513 123.667L112.995 122.791ZM516.527 118.41C514.048 119.893 511.576 121.371 509.009 122.791L509.493 123.666C512.077 122.236 514.563 120.75 517.041 119.268L516.527 118.41ZM509.01 122.791C493.409 131.384 476.132 138.909 457.524 145.245L457.846 146.192C476.503 139.838 493.835 132.291 509.493 123.667L509.01 122.791ZM457.203 145.853C466.696 179.913 472.388 217.754 473.481 257.753L474.481 257.726C473.386 217.651 467.682 179.728 458.167 145.584L457.203 145.853ZM473.981 258.239H567V257.239H473.981V258.239ZM567.499 257.713C564.798 207.376 547.294 158.959 517.185 118.541L516.383 119.138C546.375 159.398 563.81 207.626 566.501 257.766L567.499 257.713ZM191.189 153.754C182.471 185.132 177.041 220.363 175.935 257.725L176.934 257.754C178.039 220.469 183.457 185.318 192.153 154.022L191.189 153.754ZM176.435 258.239H296.752V257.239H176.435V258.239ZM297.252 257.739V168.379H296.252V257.739H297.252ZM296.766 167.879C259.446 166.854 224.031 161.814 191.791 153.415L191.539 154.383C223.857 162.802 259.347 167.852 296.739 168.879L296.766 167.879ZM430.203 153.415C397.969 161.814 362.543 166.854 325.228 167.879L325.256 168.879C362.642 167.852 398.143 162.802 430.455 154.383L430.203 153.415ZM324.742 168.379V257.745H325.742V168.379H324.742ZM325.242 258.245H445.565V257.245H325.242V258.245ZM446.065 257.73C444.959 220.369 439.529 185.143 430.811 153.765L429.847 154.033C438.543 185.33 443.961 220.475 445.066 257.76L446.065 257.73ZM54.5064 286.276C57.2059 336.612 74.7078 385.029 104.815 425.448L105.617 424.851C75.6274 384.59 58.1939 336.362 55.505 286.222L54.5064 286.276ZM105.473 425.578C107.952 424.096 110.424 422.618 112.991 421.197L112.507 420.322C109.923 421.752 107.437 423.239 104.959 424.72L105.473 425.578ZM112.99 421.198C128.574 412.616 145.846 405.091 164.437 398.743L164.114 397.797C145.474 404.162 128.148 411.709 112.507 420.322L112.99 421.198ZM164.757 398.135C155.23 364.081 149.515 326.245 148.416 286.235L147.417 286.263C148.517 326.349 154.244 364.266 163.794 398.405L164.757 398.135ZM147.916 285.749H55.0057V286.749H147.916V285.749ZM175.929 286.264C177.036 323.608 182.46 358.822 191.172 390.189L192.136 389.921C183.446 358.636 178.033 323.502 176.929 286.234L175.929 286.264ZM191.78 390.539C224.02 382.118 259.435 377.055 296.766 376.024L296.739 375.024C259.335 376.057 223.845 381.13 191.527 389.571L191.78 390.539ZM297.252 375.524V286.249H296.252V375.524H297.252ZM296.752 285.749H176.429V286.749H296.752V285.749ZM324.742 286.249V375.524H325.742V286.249H324.742ZM325.228 376.024C362.559 377.049 397.974 382.118 430.214 390.539L430.467 389.571C398.149 381.13 362.659 376.051 325.256 375.024L325.228 376.024ZM430.822 390.189C439.534 358.822 444.959 323.608 446.065 286.264L445.066 286.234C443.961 323.502 438.548 358.636 429.859 389.921L430.822 390.189ZM445.565 285.749H325.242V286.749H445.565V285.749ZM473.487 286.236C472.394 326.234 466.702 364.07 457.209 398.124L458.172 398.393C467.688 364.255 473.392 326.338 474.487 286.263L473.487 286.236ZM457.529 398.732C476.131 405.08 493.409 412.611 509.004 421.203L509.487 420.328C493.835 411.704 476.503 404.15 457.852 397.785L457.529 398.732ZM509.005 421.204C511.565 422.612 514.041 424.101 516.522 425.584L517.035 424.726C514.559 423.245 512.066 421.746 509.487 420.327L509.005 421.204ZM517.179 425.454C547.29 385.034 564.794 336.615 567.494 286.276L566.495 286.222C563.806 336.365 546.37 384.594 516.377 424.856L517.179 425.454ZM566.994 285.749H473.987V286.749H566.994V285.749ZM296.737 403.551C262.326 404.578 229.748 409.28 200.299 416.838L200.547 417.806C229.923 410.268 262.427 405.576 296.767 404.55L296.737 403.551ZM199.953 417.494C205.175 431.727 211.105 444.931 217.654 456.836L218.53 456.354C212.008 444.498 206.098 431.341 200.892 417.15L199.953 417.494ZM217.654 456.836C239.626 496.748 267.394 521.37 296.65 527.489L296.855 526.511C268.003 520.476 240.433 496.14 218.53 456.354L217.654 456.836ZM297.252 527V404.051H296.252V527H297.252ZM324.742 404.051V526.994H325.742V404.051H324.742ZM325.344 527.484C354.606 521.37 382.374 496.742 404.34 456.83L403.464 456.348C381.567 496.134 353.997 520.476 325.14 526.505L325.344 527.484ZM404.34 456.83C410.889 444.931 416.82 431.727 422.041 417.494L421.102 417.15C415.896 431.341 409.986 444.498 403.464 456.348L404.34 456.83ZM421.696 416.838C392.246 409.28 359.668 404.572 325.257 403.551L325.227 404.55C359.567 405.57 392.071 410.268 421.447 417.806L421.696 416.838ZM448.491 425.293C442.67 441.359 435.974 456.391 428.427 470.104L429.303 470.586C436.878 456.822 443.595 441.742 449.432 425.633L448.491 425.293ZM428.427 470.104C419.605 486.129 409.547 500.542 398.443 512.8L399.184 513.471C410.348 501.148 420.449 486.669 429.303 470.587L428.427 470.104ZM398.985 513.605C436.922 499.773 471.063 477.184 498.637 447.673L497.906 446.99C470.44 476.386 436.431 498.887 398.643 512.666L398.985 513.605ZM498.519 446.897C497.609 446.378 496.69 445.822 495.745 445.298L495.26 446.172C496.206 446.697 497.076 447.225 498.024 447.765L498.519 446.897ZM495.743 445.297C481.835 437.642 466.167 430.813 449.123 424.99L448.8 425.936C465.796 431.743 481.409 438.55 495.261 446.173L495.743 445.297ZM172.86 425.001C155.822 430.824 140.16 437.636 126.251 445.303L126.733 446.179C140.585 438.544 156.193 431.754 173.183 425.947L172.86 425.001ZM126.253 445.302C125.298 445.822 124.385 446.377 123.475 446.897L123.971 447.765C124.918 447.225 125.783 446.697 126.731 446.18L126.253 445.302ZM123.358 447.673C150.931 477.184 185.072 499.773 223.009 513.605L223.352 512.666C185.563 498.887 151.554 476.386 124.088 446.99L123.358 447.673ZM223.551 512.8C212.447 500.542 202.389 486.129 193.568 470.104L192.691 470.587C201.545 486.669 211.646 501.148 222.81 513.471L223.551 512.8ZM193.568 470.104C186.026 456.391 179.318 441.364 173.492 425.304L172.551 425.645C178.394 441.748 185.122 456.822 192.691 470.586L193.568 470.104Z" fill="#BD44D9" fill-opacity="0.32" mask="url(#path-1-inside-1_2068_5991)"/>
<g clip-path="url(#clip0_2068_5991)">
<path d="M29.8929 75.5C29.8929 79.3173 28.3765 82.9781 25.6773 85.6773C22.9781 88.3765 19.3173 89.8929 15.5 89.8929C11.6828 89.8929 8.02193 88.3765 5.32275 85.6773C2.62356 82.9781 1.10718 79.3173 1.10718 75.5M29.8929 75.5C29.8929 71.6828 28.3765 68.0219 25.6773 65.3227C22.9781 62.6236 19.3173 61.1072 15.5 61.1072C11.6828 61.1072 8.02193 62.6236 5.32275 65.3227C2.62356 68.0219 1.10718 71.6828 1.10718 75.5M29.8929 75.5H1.10718" stroke="#C6C404" stroke-opacity="0.32" stroke-width="3" stroke-linecap="round" stroke-linejoin="round"/>
<path d="M21.0358 75.5C20.7639 80.7634 18.8252 85.8039 15.5001 89.8929C12.1749 85.8039 10.2363 80.7634 9.96436 75.5C10.2363 70.2367 12.1749 65.1962 15.5001 61.1072C18.8252 65.1962 20.7639 70.2367 21.0358 75.5Z" stroke="#C6C404" stroke-opacity="0.32" stroke-width="3" stroke-linecap="round" stroke-linejoin="round"/>
</g>
<path fill-rule="evenodd" clip-rule="evenodd" d="M80.9057 116.901C79.1182 116.669 76.7697 116.667 73.5 116.667C70.2302 116.667 67.8817 116.669 66.0942 116.901C64.3356 117.131 63.2755 117.568 62.4917 118.327C61.7093 119.087 61.2597 120.113 61.0232 121.819C60.784 123.552 60.7812 125.829 60.7812 129C60.7812 132.171 60.784 134.448 61.0232 136.181C61.2597 137.887 61.7107 138.915 62.4931 139.675C63.1352 140.297 63.9643 140.701 65.2142 140.955L85.8282 120.965C85.567 119.755 85.1503 118.949 84.5082 118.325C83.7245 117.567 82.6643 117.131 80.9057 116.901ZM86.1321 123.499L77.7088 131.667L85.1435 138.876C85.5491 138.209 85.8131 137.356 85.9767 136.183C86.216 134.449 86.2187 132.171 86.2187 129C86.2187 126.763 86.2187 124.969 86.1321 123.499ZM83.6846 140.291L76.25 133.08L67.8267 141.249C69.3433 141.332 71.1927 141.333 73.5 141.333C76.7697 141.333 79.1182 141.331 80.9057 141.099C82.1185 140.94 82.9998 140.684 83.686 140.291M81.1835 114.92C83.169 115.179 84.7365 115.72 85.9671 116.912C87.1977 118.105 87.7546 119.625 88.0213 121.552C88.2826 123.433 88.2826 125.845 88.2826 128.924V129.076C88.2826 132.155 88.2826 134.567 88.0213 136.449C87.7546 138.375 87.1963 139.895 85.9671 141.088C84.7365 142.281 83.169 142.821 81.1821 143.08C79.242 143.333 76.7546 143.333 73.5797 143.333H73.423C70.2481 143.333 67.7607 143.333 65.8192 143.08C63.8337 142.821 62.2662 142.28 61.0356 141.088C59.805 139.895 59.2481 138.375 58.9813 136.448C58.7201 134.567 58.7201 132.155 58.7201 129.076V128.924C58.7201 125.845 58.7201 123.433 58.9813 121.551C59.2481 119.625 59.8063 118.105 61.0356 116.912C62.2662 115.719 63.8337 115.179 65.8206 114.92C67.7607 114.667 70.2481 114.667 73.423 114.667H73.5797C76.7546 114.667 79.242 114.667 81.1835 114.92ZM63.5312 124.676C63.5312 121.659 66.218 119.333 69.375 119.333C72.532 119.333 75.2187 121.659 75.2187 124.676C75.2187 127.379 73.5055 130.567 70.6606 131.745C70.2541 131.913 69.8168 131.999 69.375 131.999C68.9332 131.999 68.4959 131.913 68.0893 131.745C65.2431 130.567 63.5312 127.379 63.5312 124.676ZM69.375 121.333C67.2162 121.333 65.5937 122.896 65.5937 124.676C65.5937 126.735 66.9522 129.1 68.9006 129.907C69.0507 129.968 69.212 130 69.375 130C69.5379 130 69.6992 129.968 69.8493 129.907C71.7977 129.1 73.1562 126.733 73.1562 124.676C73.1562 122.896 71.5337 121.333 69.375 121.333Z" fill="#C6C404" fill-opacity="0.32"/>
<path d="M70.75 125C70.75 125.354 70.6051 125.693 70.3473 125.943C70.0894 126.193 69.7397 126.333 69.375 126.333C69.0103 126.333 68.6606 126.193 68.4027 125.943C68.1449 125.693 68 125.354 68 125C68 124.646 68.1449 124.307 68.4027 124.057C68.6606 123.807 69.0103 123.667 69.375 123.667C69.7397 123.667 70.0894 123.807 70.3473 124.057C70.6051 124.307 70.75 124.646 70.75 125Z" fill="#C6C404" fill-opacity="0.32"/>
<path fill-rule="evenodd" clip-rule="evenodd" d="M363.9 201.919C363.9 201.098 364.207 200.311 364.752 199.731C365.297 199.151 366.036 198.825 366.807 198.825C367.577 198.825 368.317 199.151 368.862 199.731C369.407 200.311 369.713 201.098 369.713 201.919V208.725C369.713 208.944 369.631 209.154 369.486 209.308C369.34 209.463 369.143 209.55 368.938 209.55C368.732 209.55 368.535 209.463 368.39 209.308C368.244 209.154 368.163 208.944 368.163 208.725V201.919C368.163 201.536 368.02 201.169 367.766 200.898C367.511 200.627 367.166 200.475 366.807 200.475C366.447 200.475 366.102 200.627 365.848 200.898C365.593 201.169 365.45 201.536 365.45 201.919V217.8C365.45 218.019 365.369 218.229 365.223 218.383C365.078 218.538 364.881 218.625 364.675 218.625C364.47 218.625 364.273 218.538 364.127 218.383C363.982 218.229 363.9 218.019 363.9 217.8V201.919Z" fill="#C6C404" fill-opacity="0.32"/>
<path fill-rule="evenodd" clip-rule="evenodd" d="M360.678 214.102C360.467 213.843 360.17 213.68 359.85 213.646C359.529 213.612 359.208 213.71 358.953 213.921C358.698 214.131 358.529 214.437 358.48 214.776C358.431 215.116 358.506 215.462 358.689 215.744L362.986 222.278C363.104 222.458 363.15 222.679 363.114 222.895C363.078 223.11 362.963 223.302 362.794 223.427C362.626 223.553 362.417 223.602 362.215 223.563C362.013 223.525 361.833 223.403 361.715 223.224L357.42 216.69C357.014 216.06 356.849 215.29 356.96 214.535C357.07 213.781 357.447 213.101 358.014 212.633C358.58 212.165 359.293 211.945 360.007 212.019C360.721 212.092 361.381 212.453 361.853 213.028L365.263 217.262C365.33 217.344 365.382 217.44 365.415 217.543C365.447 217.646 365.46 217.756 365.453 217.865C365.446 217.973 365.418 218.08 365.372 218.177C365.326 218.274 365.262 218.361 365.185 218.432C365.107 218.503 365.017 218.557 364.919 218.591C364.822 218.624 364.719 218.637 364.617 218.628C364.515 218.619 364.415 218.589 364.324 218.539C364.233 218.489 364.152 218.42 364.086 218.336L360.678 214.102ZM368.157 209.344C368.157 208.523 368.463 207.736 369.008 207.156C369.553 206.576 370.292 206.25 371.063 206.25C371.834 206.25 372.573 206.576 373.118 207.156C373.663 207.736 373.969 208.523 373.969 209.344V213.015C373.969 213.234 373.887 213.444 373.742 213.598C373.597 213.753 373.4 213.84 373.194 213.84C372.989 213.84 372.791 213.753 372.646 213.598C372.501 213.444 372.419 213.234 372.419 213.015V209.344C372.419 208.961 372.276 208.594 372.022 208.323C371.768 208.052 371.423 207.9 371.063 207.9C370.703 207.9 370.358 208.052 370.104 208.323C369.85 208.594 369.707 208.961 369.707 209.344V213.675C369.707 213.894 369.625 214.104 369.48 214.258C369.334 214.413 369.137 214.5 368.932 214.5C368.726 214.5 368.529 214.413 368.384 214.258C368.238 214.104 368.157 213.894 368.157 213.675V209.344Z" fill="#C6C404" fill-opacity="0.32"/>
<path fill-rule="evenodd" clip-rule="evenodd" d="M378.232 210.992C378.24 210.58 378.171 210.17 378.029 209.787C377.887 209.404 377.674 209.055 377.403 208.761C377.132 208.466 376.809 208.232 376.452 208.073C376.095 207.913 375.712 207.831 375.325 207.832C374.937 207.832 374.554 207.915 374.198 208.075C373.841 208.236 373.518 208.47 373.248 208.765C372.978 209.06 372.766 209.41 372.624 209.793C372.483 210.177 372.414 210.587 372.424 210.999L372.425 212.027C372.426 212.135 372.446 212.242 372.485 212.342C372.524 212.442 372.581 212.533 372.653 212.609C372.726 212.686 372.811 212.747 372.905 212.788C372.999 212.829 373.1 212.85 373.202 212.85C373.304 212.85 373.404 212.828 373.498 212.787C373.592 212.745 373.678 212.684 373.749 212.607C373.821 212.53 373.878 212.439 373.917 212.339C373.956 212.239 373.976 212.132 373.975 212.023L373.974 210.994C373.968 210.8 373.998 210.608 374.063 210.427C374.128 210.246 374.227 210.082 374.353 209.942C374.479 209.803 374.631 209.692 374.798 209.617C374.965 209.541 375.145 209.502 375.327 209.502C375.509 209.502 375.689 209.541 375.856 209.616C376.023 209.692 376.175 209.802 376.301 209.941C376.428 210.08 376.526 210.245 376.592 210.425C376.657 210.606 376.688 210.799 376.682 210.992V214.5C376.682 214.719 376.763 214.929 376.909 215.083C377.054 215.238 377.251 215.325 377.457 215.325C377.662 215.325 377.859 215.238 378.005 215.083C378.15 214.929 378.232 214.719 378.232 214.5V210.992Z" fill="#C6C404" fill-opacity="0.32"/>
<path fill-rule="evenodd" clip-rule="evenodd" d="M382.494 214.294C382.494 212.584 381.192 211.2 379.588 211.2H379.007C378.39 211.2 377.799 211.461 377.363 211.925C376.927 212.389 376.682 213.019 376.682 213.675H378.232C378.232 213.456 378.313 213.246 378.459 213.092C378.604 212.937 378.801 212.85 379.007 212.85H379.588C380.337 212.85 380.944 213.497 380.944 214.294V220.275C380.944 220.494 381.026 220.704 381.171 220.858C381.316 221.013 381.514 221.1 381.719 221.1C381.925 221.1 382.122 221.013 382.267 220.858C382.412 220.704 382.494 220.494 382.494 220.275V214.294Z" fill="#C6C404" fill-opacity="0.32"/>
<path fill-rule="evenodd" clip-rule="evenodd" d="M381.725 219.45C381.931 219.45 382.128 219.537 382.273 219.692C382.419 219.846 382.5 220.056 382.5 220.275C382.5 223.806 381.245 226.326 379.295 227.939C377.376 229.528 374.865 230.175 372.425 230.175C369.962 230.175 367.876 229.517 366.095 228.289C364.322 227.068 362.89 225.311 361.685 223.174C361.633 223.081 361.598 222.978 361.584 222.871C361.569 222.764 361.574 222.654 361.598 222.549C361.623 222.444 361.667 222.345 361.728 222.258C361.788 222.171 361.865 222.098 361.952 222.042C362.039 221.986 362.136 221.95 362.237 221.934C362.337 221.918 362.44 221.923 362.539 221.95C362.638 221.976 362.73 222.023 362.812 222.087C362.894 222.152 362.963 222.233 363.015 222.326C364.136 224.314 365.418 225.857 366.937 226.905C368.45 227.946 370.238 228.525 372.425 228.525C374.636 228.525 376.775 227.934 378.343 226.636C379.882 225.362 380.95 223.344 380.95 220.275C380.95 220.056 381.032 219.846 381.177 219.692C381.323 219.537 381.52 219.45 381.725 219.45Z" fill="#C6C404" fill-opacity="0.32"/>
<mask id="path-12-inside-2_2068_5991" fill="white">
<path fill-rule="evenodd" clip-rule="evenodd" d="M298.469 19.9466C298.469 13.2105 303.838 7.71875 310.5 7.71875C317.162 7.71875 322.531 13.2105 322.531 19.9466C322.531 23.1985 321.605 26.691 319.966 29.7078C318.329 32.7204 315.94 35.3384 312.949 36.7367C312.182 37.0956 311.346 37.2817 310.5 37.2817C309.654 37.2817 308.818 37.0956 308.051 36.7367C305.061 35.3384 302.671 32.7218 301.035 29.7078C299.396 26.691 298.469 23.1985 298.469 19.9466ZM310.5 9.78125C305.011 9.78125 300.531 14.3146 300.531 19.9466C300.531 22.83 301.36 25.9856 302.847 28.7232C304.335 31.4636 306.438 33.7063 308.924 34.8681C309.417 35.0991 309.955 35.2188 310.499 35.2188C311.044 35.2188 311.581 35.0991 312.074 34.8681C314.562 33.7063 316.666 31.4636 318.153 28.7232C319.64 25.987 320.469 22.83 320.469 19.9466C320.469 14.3146 315.989 9.78125 310.5 9.78125ZM310.5 16.6562C310.094 16.6562 309.691 16.7363 309.316 16.8917C308.941 17.0472 308.6 17.2751 308.312 17.5624C308.025 17.8497 307.797 18.1907 307.642 18.5661C307.486 18.9414 307.406 19.3437 307.406 19.75C307.406 20.1563 307.486 20.5586 307.642 20.9339C307.797 21.3093 308.025 21.6503 308.312 21.9376C308.6 22.2249 308.941 22.4528 309.316 22.6083C309.691 22.7637 310.094 22.8438 310.5 22.8438C311.321 22.8438 312.107 22.5178 312.688 21.9376C313.268 21.3574 313.594 20.5705 313.594 19.75C313.594 18.9295 313.268 18.1426 312.688 17.5624C312.107 16.9822 311.321 16.6562 310.5 16.6562ZM305.344 19.75C305.344 18.9461 305.532 18.1533 305.892 17.4349C306.253 16.7166 306.777 16.0925 307.422 15.6127C308.067 15.1328 308.815 14.8104 309.607 14.6712C310.399 14.532 311.212 14.5798 311.982 14.8109C312.752 15.0421 313.458 15.45 314.042 16.0022C314.626 16.5544 315.073 17.2356 315.347 17.9913C315.621 18.7471 315.715 19.5564 315.621 20.3548C315.526 21.1531 315.247 21.9184 314.804 22.5894L316.044 23.8351C316.237 24.0291 316.345 24.2918 316.344 24.5654C316.343 24.839 316.234 25.1011 316.04 25.294C315.846 25.4869 315.583 25.5949 315.31 25.5941C315.036 25.5933 314.774 25.4839 314.581 25.2899L313.348 24.0496C312.571 24.5644 311.669 24.8589 310.737 24.9018C309.806 24.9447 308.881 24.7345 308.06 24.2934C307.239 23.8523 306.553 23.1968 306.074 22.3968C305.596 21.5968 305.344 20.6821 305.344 19.75Z"/>
</mask>
<path d="M319.966 29.7078L315.572 27.3208L315.572 27.3214L319.966 29.7078ZM312.949 36.7367L310.831 32.2074L310.829 32.2086L312.949 36.7367ZM310.5 37.2817V32.2817V37.2817ZM308.051 36.7367L310.171 32.2085L310.169 32.2074L308.051 36.7367ZM301.035 29.7078L305.429 27.3222L305.428 27.3208L301.035 29.7078ZM302.847 28.7232L307.241 26.3376L307.241 26.3375L302.847 28.7232ZM308.924 34.8681L311.046 30.3404L311.041 30.3384L308.924 34.8681ZM310.499 35.2188V40.2188V35.2188ZM312.074 34.8681L309.958 30.338L309.953 30.3404L312.074 34.8681ZM318.153 28.7232L313.76 26.3366L313.759 26.3376L318.153 28.7232ZM310.5 16.6562V21.6562V16.6562ZM310.5 22.8438V17.8438V22.8438ZM313.594 19.75H318.594H313.594ZM305.344 19.75L310.344 19.751V19.7496L305.344 19.75ZM314.804 22.5894L310.63 19.8356L308.389 23.2327L311.26 26.1171L314.804 22.5894ZM316.044 23.8351L319.59 20.3096L319.587 20.3074L316.044 23.8351ZM314.581 25.2899L318.127 21.7644L318.126 21.7642L314.581 25.2899ZM313.348 24.0496L316.893 20.5239L314.003 17.6179L310.586 19.8813L313.348 24.0496ZM303.469 19.9466C303.469 15.8859 306.685 12.7188 310.5 12.7188V2.71875C300.991 2.71875 293.469 10.5351 293.469 19.9466H303.469ZM310.5 12.7188C314.315 12.7188 317.531 15.8859 317.531 19.9466H327.531C327.531 10.5351 320.009 2.71875 310.5 2.71875V12.7188ZM317.531 19.9466C317.531 22.3051 316.842 24.9825 315.572 27.3208L324.359 32.0947C326.367 28.3995 327.531 24.0919 327.531 19.9466H317.531ZM315.572 27.3214C314.293 29.6752 312.6 31.3805 310.831 32.2074L315.067 41.2661C319.279 39.2963 322.365 35.7655 324.359 32.0941L315.572 27.3214ZM310.829 32.2086C310.726 32.2567 310.614 32.2817 310.5 32.2817V42.2817C312.079 42.2817 313.639 41.9346 315.069 41.2649L310.829 32.2086ZM310.5 32.2817C310.386 32.2817 310.274 32.2567 310.171 32.2086L305.931 41.2649C307.361 41.9346 308.921 42.2817 310.5 42.2817V32.2817ZM310.169 32.2074C308.4 31.3802 306.707 29.6759 305.429 27.3222L296.64 32.0933C298.635 35.7676 301.721 39.2966 305.933 41.2661L310.169 32.2074ZM305.428 27.3208C304.158 24.9825 303.469 22.3051 303.469 19.9466H293.469C293.469 24.0919 294.633 28.3995 296.641 32.0947L305.428 27.3208ZM310.5 4.78125C302.169 4.78125 295.531 11.6345 295.531 19.9466H305.531C305.531 16.9948 307.853 14.7812 310.5 14.7812V4.78125ZM295.531 19.9466C295.531 23.724 296.599 27.6943 298.453 31.109L307.241 26.3375C306.122 24.277 305.531 21.936 305.531 19.9466H295.531ZM298.453 31.1089C300.299 34.5098 303.099 37.665 306.807 39.3978L311.041 30.3384C309.777 29.7475 308.37 28.4174 307.241 26.3376L298.453 31.1089ZM306.803 39.3958C307.96 39.9378 309.222 40.2188 310.499 40.2188V30.2188C310.688 30.2188 310.875 30.2603 311.046 30.3404L306.803 39.3958ZM310.499 40.2188C311.777 40.2188 313.039 39.9378 314.196 39.3958L309.953 30.3404C310.124 30.2603 310.311 30.2188 310.499 30.2188V40.2188ZM314.19 39.3983C317.9 37.6654 320.701 34.51 322.547 31.1089L313.759 26.3376C312.63 28.4173 311.223 29.7471 309.958 30.338L314.19 39.3983ZM322.547 31.1099C324.402 27.6955 325.469 23.7234 325.469 19.9466H315.469C315.469 21.9366 314.878 24.2785 313.76 26.3366L322.547 31.1099ZM325.469 19.9466C325.469 11.6345 318.831 4.78125 310.5 4.78125V14.7812C313.147 14.7812 315.469 16.9948 315.469 19.9466H325.469ZM310.5 11.6562C309.437 11.6562 308.385 11.8656 307.403 12.2723L311.229 21.5111C310.998 21.6069 310.75 21.6562 310.5 21.6562V11.6562ZM307.403 12.2723C306.421 12.6791 305.528 13.2753 304.777 14.0269L311.848 21.0979C311.671 21.2749 311.461 21.4153 311.229 21.5111L307.403 12.2723ZM304.777 14.0269C304.025 14.7784 303.429 15.6707 303.022 16.6527L312.261 20.4795C312.165 20.7108 312.025 20.9209 311.848 21.0979L304.777 14.0269ZM303.022 16.6527C302.616 17.6346 302.406 18.6871 302.406 19.75H312.406C312.406 20.0003 312.357 20.2482 312.261 20.4795L303.022 16.6527ZM302.406 19.75C302.406 20.8129 302.616 21.8654 303.022 22.8473L312.261 19.0205C312.357 19.2518 312.406 19.4997 312.406 19.75H302.406ZM303.022 22.8473C303.429 23.8293 304.025 24.7216 304.777 25.4731L311.848 18.4021C312.025 18.5791 312.165 18.7892 312.261 19.0205L303.022 22.8473ZM304.777 25.4731C305.528 26.2247 306.421 26.8209 307.403 27.2276L311.229 17.9889C311.461 18.0847 311.671 18.2251 311.848 18.4021L304.777 25.4731ZM307.403 27.2276C308.385 27.6344 309.437 27.8438 310.5 27.8438V17.8438C310.75 17.8438 310.998 17.8931 311.229 17.9889L307.403 27.2276ZM310.5 27.8438C312.647 27.8438 314.705 26.991 316.223 25.4731L309.152 18.4021C309.51 18.0446 309.994 17.8438 310.5 17.8438V27.8438ZM316.223 25.4731C317.741 23.9553 318.594 21.8966 318.594 19.75H308.594C308.594 19.2444 308.795 18.7596 309.152 18.4021L316.223 25.4731ZM318.594 19.75C318.594 17.6034 317.741 15.5447 316.223 14.0269L309.152 21.0979C308.795 20.7404 308.594 20.2556 308.594 19.75H318.594ZM316.223 14.0269C314.705 12.509 312.647 11.6562 310.5 11.6562V21.6562C309.994 21.6562 309.51 21.4554 309.152 21.0979L316.223 14.0269ZM310.344 19.7496C310.344 19.7252 310.349 19.7012 310.36 19.6794L301.425 15.1904C300.714 16.6054 300.344 18.167 300.344 19.7504L310.344 19.7496ZM310.36 19.6794C310.371 19.6576 310.387 19.6387 310.407 19.6242L304.438 11.6011C303.167 12.5463 302.135 13.7755 301.425 15.1904L310.36 19.6794ZM310.407 19.6242C310.426 19.6096 310.449 19.5999 310.473 19.5957L308.741 9.7467C307.182 10.0209 305.708 10.6559 304.438 11.6011L310.407 19.6242ZM310.473 19.5957C310.497 19.5914 310.522 19.5929 310.545 19.5999L313.42 10.022C311.903 9.5668 310.301 9.47252 308.741 9.7467L310.473 19.5957ZM310.545 19.5999C310.568 19.6069 310.59 19.6193 310.607 19.636L317.476 12.3684C316.325 11.2807 314.936 10.4772 313.42 10.022L310.545 19.5999ZM310.607 19.636C310.625 19.6527 310.639 19.6734 310.647 19.6963L320.048 16.2864C319.508 14.7978 318.627 13.4561 317.476 12.3684L310.607 19.636ZM310.647 19.6963C310.655 19.7192 310.658 19.7437 310.655 19.7679L320.586 20.9417C320.772 19.3691 320.588 17.7749 320.048 16.2864L310.647 19.6963ZM310.655 19.7679C310.652 19.7921 310.644 19.8153 310.63 19.8356L318.977 25.3432C319.849 24.0215 320.4 22.5142 320.586 20.9417L310.655 19.7679ZM311.26 26.1171L312.501 27.3628L319.587 20.3074L318.347 19.0617L311.26 26.1171ZM312.498 27.3606C311.756 26.6143 311.341 25.6038 311.344 24.5513L321.344 24.5796C321.349 22.9799 320.717 21.4439 319.59 20.3096L312.498 27.3606ZM311.344 24.5513C311.347 23.4988 311.768 22.4906 312.514 21.7485L319.565 28.8395C320.7 27.7116 321.34 26.1792 321.344 24.5796L311.344 24.5513ZM312.514 21.7485C313.261 21.0064 314.271 20.5911 315.324 20.5941L315.295 30.5941C316.895 30.5986 318.431 29.9674 319.565 28.8395L312.514 21.7485ZM315.324 20.5941C316.376 20.5971 317.384 21.018 318.127 21.7644L311.035 28.8154C312.163 29.9497 313.696 30.5895 315.295 30.5941L315.324 20.5941ZM318.126 21.7642L316.893 20.5239L309.802 27.5753L311.036 28.8156L318.126 21.7642ZM310.586 19.8813C310.563 19.8969 310.535 19.9058 310.507 19.9071L310.968 29.8965C312.802 29.812 314.578 29.2319 316.109 28.218L310.586 19.8813ZM310.507 19.9071C310.479 19.9084 310.451 19.902 310.426 19.8887L305.694 28.698C307.311 29.5669 309.134 29.981 310.968 29.8965L310.507 19.9071ZM310.426 19.8887C310.401 19.8753 310.38 19.8554 310.366 19.8312L301.783 24.9624C302.725 26.5382 304.076 27.8292 305.694 28.698L310.426 19.8887ZM310.366 19.8312C310.351 19.807 310.344 19.7792 310.344 19.751L300.344 19.749C300.343 21.5849 300.841 23.3866 301.783 24.9624L310.366 19.8312Z" fill="#C6C404" fill-opacity="0.32" mask="url(#path-12-inside-2_2068_5991)"/>
<path d="M171.333 20L170.096 19.504C169.968 19.8224 169.968 20.1777 170.096 20.496L171.333 20ZM208.667 20L209.904 20.496C210.032 20.1777 210.032 19.8224 209.904 19.504L208.667 20ZM190 32C183.829 32 179.496 28.928 176.659 25.776C175.108 24.0418 173.808 22.0995 172.795 20.0054C172.72 19.8468 172.649 19.6867 172.581 19.5254L172.571 19.5067L171.333 20L170.096 20.496V20.5014L170.104 20.512C170.126 20.5684 170.149 20.6244 170.173 20.68L170.381 21.1414C171.505 23.4703 172.95 25.63 174.675 27.5574C177.84 31.0747 182.837 34.6667 190 34.6667V32ZM171.333 20L172.571 20.496L172.581 20.4747C172.646 20.3121 172.717 20.152 172.795 19.9947C173.808 17.9006 175.108 15.9583 176.659 14.224C179.493 11.072 183.829 8.00004 190 8.00004V5.33337C182.837 5.33337 177.837 8.92804 174.675 12.4427C172.95 14.37 171.505 16.5298 170.381 18.8587C170.284 19.0665 170.192 19.2763 170.104 19.488L170.099 19.4987V19.5014H170.093L171.333 20ZM190 8.00004C196.171 8.00004 200.504 11.072 203.341 14.224C204.892 15.9584 206.192 17.9007 207.205 19.9947C207.28 20.1532 207.351 20.3132 207.419 20.4747L207.429 20.4934L208.667 20L209.904 19.504V19.4987L209.896 19.488C209.876 19.4309 209.853 19.3748 209.827 19.32C209.513 18.6168 209.166 17.9289 208.787 17.2587C207.809 15.5339 206.648 13.9192 205.325 12.4427C202.16 8.92804 197.163 5.33337 190 5.33337V8.00004ZM208.667 20C208.254 19.8362 207.841 19.6709 207.429 19.504L207.421 19.5254L207.381 19.6187L207.205 20.0054C206.192 22.0994 204.892 24.0417 203.341 25.776C200.507 28.928 196.171 32 190 32V34.6667C197.163 34.6667 202.163 31.072 205.325 27.56C207.05 25.6319 208.495 23.4713 209.619 21.1414C209.715 20.9336 209.808 20.7237 209.896 20.512L209.901 20.5014V20.4987L209.904 20.496L208.667 20ZM190 24C188.939 24 187.922 23.5786 187.172 22.8285C186.421 22.0783 186 21.0609 186 20H183.333C183.333 21.7682 184.036 23.4638 185.286 24.7141C186.536 25.9643 188.232 26.6667 190 26.6667V24ZM194 20C194 21.0609 193.579 22.0783 192.828 22.8285C192.078 23.5786 191.061 24 190 24V26.6667C191.768 26.6667 193.464 25.9643 194.714 24.7141C195.964 23.4638 196.667 21.7682 196.667 20H194ZM190 16C191.061 16 192.078 16.4215 192.828 17.1716C193.579 17.9218 194 18.9392 194 20H196.667C196.667 18.2319 195.964 16.5362 194.714 15.286C193.464 14.0358 191.768 13.3334 190 13.3334V16ZM190 13.3334C188.232 13.3334 186.536 14.0358 185.286 15.286C184.036 16.5362 183.333 18.2319 183.333 20H186C186 18.9392 186.421 17.9218 187.172 17.1716C187.922 16.4215 188.939 16 190 16V13.3334Z" fill="#C6C404" fill-opacity="0.32"/>
<path d="M78.5 28C78.5 31.0403 76.0403 33.5 73 33.5C69.9597 33.5 67.5 31.0403 67.5 28C67.5 24.9597 69.9597 22.5 73 22.5C76.0403 22.5 78.5 24.9597 78.5 28ZM73 39.5C74.6584 39.5 76.2123 39.1238 77.6114 38.5H77.8C80.9466 38.5 83.5 41.0534 83.5 44.2V46C83.5 46.8278 82.8278 47.5 82 47.5H64C63.1722 47.5 62.5 46.8278 62.5 46V44.2C62.5 41.0534 65.0534 38.5 68.2 38.5H68.3897C69.7911 39.1229 71.3396 39.5 73 39.5ZM95.5 29C95.5 31.4841 93.4841 33.5 91 33.5C88.5159 33.5 86.5 31.4841 86.5 29C86.5 26.5159 88.5159 24.5 91 24.5C93.4841 24.5 95.5 26.5159 95.5 29ZM91 39C92.0848 39 93.0894 38.7955 94.0061 38.5C97.0436 38.5033 99.5 40.9617 99.5 44C99.5 44.8278 98.8278 45.5 98 45.5H88.5V44.2C88.5 42.1444 87.905 40.2381 86.8998 38.6201C87.2551 38.542 87.6202 38.5005 87.9939 38.5C88.9106 38.7955 89.9152 39 91 39Z" stroke="#C6C404" stroke-opacity="0.32" stroke-width="3"/>
<defs>
<clipPath id="clip0_2068_5991">
<rect width="31" height="31" fill="white" transform="translate(0 60)"/>
</clipPath>
</defs>
</svg>
