<svg width="1608" height="920" viewBox="0 0 1608 920" fill="none" xmlns="http://www.w3.org/2000/svg">
<g clip-path="url(#clip0_2068_5869)">
<path d="M157.143 178C157.143 187.851 153.23 197.298 146.264 204.264C139.298 211.23 129.851 215.143 120 215.143C110.149 215.143 100.702 211.23 93.7361 204.264C86.7704 197.298 82.8572 187.851 82.8572 178M157.143 178C157.143 168.149 153.23 158.702 146.264 151.736C139.298 144.77 129.851 140.857 120 140.857C110.149 140.857 100.702 144.77 93.7361 151.736C86.7704 158.702 82.8572 168.149 82.8572 178M157.143 178H82.8572" stroke="#C6C404" stroke-opacity="0.32" stroke-width="6" stroke-linecap="round" stroke-linejoin="round"/>
<path d="M134.286 178C133.584 191.583 128.581 204.591 120 215.143C111.419 204.591 106.416 191.583 105.714 178C106.416 164.417 111.419 151.409 120 140.857C128.581 151.409 133.584 164.417 134.286 178Z" stroke="#C6C404" stroke-opacity="0.32" stroke-width="6" stroke-linecap="round" stroke-linejoin="round"/>
</g>
<path fill-rule="evenodd" clip-rule="evenodd" d="M57.9533 457.753C53.62 457.173 47.9266 457.167 40 457.167C32.0733 457.167 26.38 457.173 22.0466 457.753C17.7833 458.327 15.2133 459.42 13.3133 461.317C11.4166 463.217 10.3266 465.783 9.75332 470.047C9.17332 474.38 9.16665 480.073 9.16665 488C9.16665 495.927 9.17332 501.62 9.75332 505.953C10.3266 510.217 11.42 512.787 13.3166 514.687C14.8733 516.243 16.8833 517.253 19.9133 517.887L69.8866 467.913C69.2533 464.887 68.2433 462.873 66.6866 461.313C64.7866 459.417 62.2166 458.327 57.9533 457.753ZM70.6233 474.247L50.2033 494.667L68.2266 512.69C69.21 511.023 69.85 508.89 70.2466 505.957C70.8266 501.623 70.8333 495.927 70.8333 488C70.8333 482.407 70.8333 477.923 70.6233 474.247ZM64.69 516.227L46.6666 498.2L26.2466 518.623C29.9233 518.83 34.4066 518.833 40 518.833C47.9266 518.833 53.62 518.827 57.9533 518.247C60.8933 517.85 63.03 517.21 64.6933 516.227M58.6266 452.8C63.44 453.447 67.24 454.8 70.2233 457.78C73.2066 460.763 74.5566 464.563 75.2033 469.38C75.8366 474.083 75.8366 480.113 75.8366 487.81V488.19C75.8366 495.887 75.8366 501.917 75.2033 506.623C74.5566 511.437 73.2033 515.237 70.2233 518.22C67.24 521.203 63.44 522.553 58.6233 523.2C53.92 523.833 47.89 523.833 40.1933 523.833H39.8133C32.1166 523.833 26.0866 523.833 21.38 523.2C16.5666 522.553 12.7666 521.2 9.78332 518.22C6.79998 515.237 5.44998 511.437 4.80332 506.62C4.16998 501.917 4.16998 495.887 4.16998 488.19V487.81C4.16998 480.113 4.16998 474.083 4.80332 469.377C5.44998 464.563 6.80332 460.763 9.78332 457.78C12.7666 454.797 16.5666 453.447 21.3833 452.8C26.0866 452.167 32.1166 452.167 39.8133 452.167H40.1933C47.89 452.167 53.92 452.167 58.6266 452.8ZM15.8333 477.19C15.8333 469.647 22.3466 463.833 30 463.833C37.6533 463.833 44.1666 469.647 44.1666 477.19C44.1666 483.947 40.0133 491.917 33.1166 494.863C32.1311 495.283 31.071 495.499 30 495.499C28.9289 495.499 27.8689 495.283 26.8833 494.863C19.9833 491.917 15.8333 483.947 15.8333 477.19ZM30 468.833C24.7666 468.833 20.8333 472.74 20.8333 477.19C20.8333 482.337 24.1266 488.25 28.85 490.267C29.214 490.42 29.605 490.499 30 490.499C30.395 490.499 30.786 490.42 31.15 490.267C35.8733 488.25 39.1666 482.333 39.1666 477.19C39.1666 472.74 35.2333 468.833 30 468.833Z" fill="#C6C404" fill-opacity="0.32"/>
<path d="M33.3334 478C33.3334 478.884 32.9822 479.732 32.357 480.357C31.7319 480.982 30.8841 481.333 30 481.333C29.116 481.333 28.2681 480.982 27.643 480.357C27.0179 479.732 26.6667 478.884 26.6667 478C26.6667 477.116 27.0179 476.268 27.643 475.643C28.2681 475.018 29.116 474.667 30 474.667C30.8841 474.667 31.7319 475.018 32.357 475.643C32.9822 476.268 33.3334 477.116 33.3334 478Z" fill="#C6C404" fill-opacity="0.32"/>
<path d="M259 734C261.75 734 264.105 733.022 266.065 731.065C268.025 729.108 269.003 726.753 269 724C268.997 721.247 268.018 718.893 266.065 716.94C264.112 714.987 261.757 714.007 259 714C256.243 713.993 253.89 714.973 251.94 716.94C249.99 718.907 249.01 721.26 249 724C248.99 726.74 249.97 729.095 251.94 731.065C253.91 733.035 256.263 734.013 259 734ZM234 784V774H254V758.5C249.917 757.583 246.272 755.855 243.065 753.315C239.858 750.775 237.503 747.587 236 743.75C229.75 743 224.522 740.272 220.315 735.565C216.108 730.858 214.003 725.337 214 719V714C214 711.25 214.98 708.897 216.94 706.94C218.9 704.983 221.253 704.003 224 704H234V694H284V704H294C296.75 704 299.105 704.98 301.065 706.94C303.025 708.9 304.003 711.253 304 714V719C304 725.333 301.895 730.855 297.685 735.565C293.475 740.275 288.247 743.003 282 743.75C280.5 747.583 278.147 750.772 274.94 753.315C271.733 755.858 268.087 757.587 264 758.5V774H284V784H234ZM234 733V714H224V719C224 722.167 224.917 725.022 226.75 727.565C228.583 730.108 231 731.92 234 733ZM259 749C263.167 749 266.708 747.542 269.625 744.625C272.542 741.708 274 738.167 274 734V704H244V734C244 738.167 245.458 741.708 248.375 744.625C251.292 747.542 254.833 749 259 749ZM284 733C287 731.917 289.417 730.103 291.25 727.56C293.083 725.017 294 722.163 294 719V714H284V733Z" fill="#C6C404" fill-opacity="0.32"/>
<path fill-rule="evenodd" clip-rule="evenodd" d="M1538.39 747.5C1538.39 745.511 1539.18 743.603 1540.58 742.197C1541.99 740.79 1543.9 740 1545.89 740C1547.88 740 1549.78 740.79 1551.19 742.197C1552.6 743.603 1553.39 745.511 1553.39 747.5V764C1553.39 764.53 1553.18 765.039 1552.8 765.414C1552.43 765.789 1551.92 766 1551.39 766C1550.86 766 1550.35 765.789 1549.97 765.414C1549.6 765.039 1549.39 764.53 1549.39 764V747.5C1549.39 746.572 1549.02 745.682 1548.36 745.025C1547.71 744.369 1546.82 744 1545.89 744C1544.96 744 1544.07 744.369 1543.41 745.025C1542.76 745.682 1542.39 746.572 1542.39 747.5V786C1542.39 786.53 1542.18 787.039 1541.8 787.414C1541.43 787.789 1540.92 788 1540.39 788C1539.86 788 1539.35 787.789 1538.97 787.414C1538.6 787.039 1538.39 786.53 1538.39 786V747.5Z" fill="#C6C404" fill-opacity="0.32"/>
<path fill-rule="evenodd" clip-rule="evenodd" d="M1530.07 777.036C1529.53 776.407 1528.76 776.011 1527.93 775.929C1527.11 775.847 1526.28 776.086 1525.62 776.595C1524.96 777.105 1524.53 777.848 1524.4 778.67C1524.27 779.492 1524.47 780.332 1524.94 781.016L1536.03 796.856C1536.33 797.291 1536.45 797.829 1536.36 798.351C1536.27 798.874 1535.97 799.338 1535.53 799.642C1535.1 799.946 1534.56 800.065 1534.04 799.972C1533.52 799.879 1533.05 799.583 1532.75 799.148L1521.66 783.308C1520.62 781.783 1520.19 779.914 1520.48 778.086C1520.76 776.258 1521.73 774.607 1523.2 773.473C1524.66 772.339 1526.5 771.806 1528.34 771.984C1530.18 772.163 1531.89 773.038 1533.1 774.432L1541.9 784.696C1542.08 784.895 1542.21 785.126 1542.3 785.377C1542.38 785.628 1542.41 785.893 1542.4 786.156C1542.38 786.42 1542.31 786.678 1542.19 786.914C1542.07 787.15 1541.9 787.36 1541.7 787.533C1541.5 787.705 1541.27 787.835 1541.02 787.917C1540.77 787.999 1540.5 788.029 1540.24 788.008C1539.97 787.986 1539.72 787.912 1539.48 787.791C1539.25 787.669 1539.04 787.503 1538.87 787.3L1530.07 777.036ZM1549.37 765.5C1549.37 763.511 1550.16 761.603 1551.57 760.197C1552.98 758.79 1554.88 758 1556.87 758C1558.86 758 1560.77 758.79 1562.18 760.197C1563.58 761.603 1564.37 763.511 1564.37 765.5V774.4C1564.37 774.93 1564.16 775.439 1563.79 775.814C1563.41 776.189 1562.9 776.4 1562.37 776.4C1561.84 776.4 1561.33 776.189 1560.96 775.814C1560.58 775.439 1560.37 774.93 1560.37 774.4V765.5C1560.37 764.572 1560 763.682 1559.35 763.025C1558.69 762.369 1557.8 762 1556.87 762C1555.94 762 1555.05 762.369 1554.4 763.025C1553.74 763.682 1553.37 764.572 1553.37 765.5V776C1553.37 776.53 1553.16 777.039 1552.79 777.414C1552.41 777.789 1551.9 778 1551.37 778C1550.84 778 1550.33 777.789 1549.96 777.414C1549.58 777.039 1549.37 776.53 1549.37 776V765.5Z" fill="#C6C404" fill-opacity="0.32"/>
<path fill-rule="evenodd" clip-rule="evenodd" d="M1575.37 769.496C1575.39 768.497 1575.22 767.504 1574.85 766.575C1574.48 765.646 1573.93 764.8 1573.23 764.086C1572.53 763.373 1571.7 762.806 1570.78 762.419C1569.86 762.033 1568.87 761.834 1567.87 761.835C1566.87 761.836 1565.88 762.037 1564.96 762.425C1564.04 762.814 1563.21 763.383 1562.51 764.098C1561.81 764.813 1561.27 765.66 1560.9 766.59C1560.54 767.52 1560.36 768.513 1560.38 769.512L1560.39 772.004C1560.39 772.267 1560.44 772.527 1560.54 772.769C1560.64 773.011 1560.79 773.232 1560.98 773.417C1561.16 773.602 1561.38 773.749 1561.63 773.849C1561.87 773.949 1562.13 774 1562.39 774C1562.65 773.999 1562.91 773.947 1563.16 773.846C1563.4 773.745 1563.62 773.597 1563.81 773.411C1563.99 773.225 1564.14 773.004 1564.24 772.762C1564.34 772.519 1564.39 772.259 1564.39 771.996L1564.38 769.5C1564.37 769.031 1564.45 768.564 1564.61 768.126C1564.78 767.688 1565.04 767.289 1565.36 766.951C1565.69 766.614 1566.08 766.345 1566.51 766.162C1566.94 765.979 1567.41 765.884 1567.88 765.884C1568.35 765.883 1568.81 765.978 1569.24 766.16C1569.67 766.343 1570.06 766.611 1570.39 766.948C1570.72 767.285 1570.97 767.685 1571.14 768.122C1571.31 768.56 1571.39 769.027 1571.37 769.496V778C1571.37 778.53 1571.58 779.039 1571.96 779.414C1572.33 779.789 1572.84 780 1573.37 780C1573.9 780 1574.41 779.789 1574.79 779.414C1575.16 779.039 1575.37 778.53 1575.37 778V769.496Z" fill="#C6C404" fill-opacity="0.32"/>
<path fill-rule="evenodd" clip-rule="evenodd" d="M1586.37 777.5C1586.37 773.356 1583.01 770 1578.87 770H1577.37C1575.78 770 1574.25 770.632 1573.13 771.757C1572 772.883 1571.37 774.409 1571.37 776H1575.37C1575.37 775.47 1575.58 774.961 1575.96 774.586C1576.33 774.211 1576.84 774 1577.37 774H1578.87C1580.8 774 1582.37 775.568 1582.37 777.5V792C1582.37 792.53 1582.58 793.039 1582.96 793.414C1583.33 793.789 1583.84 794 1584.37 794C1584.9 794 1585.41 793.789 1585.79 793.414C1586.16 793.039 1586.37 792.53 1586.37 792V777.5Z" fill="#C6C404" fill-opacity="0.32"/>
<path fill-rule="evenodd" clip-rule="evenodd" d="M1584.39 790C1584.92 790 1585.43 790.211 1585.8 790.586C1586.18 790.961 1586.39 791.47 1586.39 792C1586.39 800.56 1583.15 806.668 1578.12 810.58C1573.16 814.432 1566.68 816 1560.39 816C1554.03 816 1548.65 814.404 1544.05 811.428C1539.48 808.468 1535.78 804.208 1532.67 799.028C1532.54 798.803 1532.45 798.553 1532.41 798.293C1532.37 798.033 1532.38 797.768 1532.45 797.514C1532.51 797.259 1532.63 797.019 1532.78 796.808C1532.94 796.597 1533.13 796.419 1533.36 796.284C1533.59 796.149 1533.84 796.06 1534.09 796.021C1534.35 795.983 1534.62 795.996 1534.87 796.06C1535.13 796.124 1535.37 796.237 1535.58 796.394C1535.79 796.55 1535.97 796.747 1536.1 796.972C1539 801.792 1542.3 805.532 1546.22 808.072C1550.13 810.596 1554.74 812 1560.39 812C1566.09 812 1571.61 810.568 1575.66 807.42C1579.63 804.332 1582.39 799.44 1582.39 792C1582.39 791.47 1582.6 790.961 1582.97 790.586C1583.35 790.211 1583.86 790 1584.39 790Z" fill="#C6C404" fill-opacity="0.32"/>
<path d="M1544.57 79.9829C1544.75 80.0732 1544.94 80.1613 1545.12 80.2473C1546.65 80.9627 1548.31 81.3335 1550 81.3335C1551.68 81.3335 1553.35 80.9631 1554.87 80.2485C1557.11 79.2062 1559.2 77.849 1561.15 76.2415C1559.2 77.8486 1557.11 79.2059 1554.88 80.2487L1554.88 80.2493C1553.35 80.964 1551.69 81.3344 1550 81.3344C1548.31 81.3344 1546.65 80.964 1545.12 80.2493L1545.12 80.2487C1544.94 80.1623 1544.75 80.0737 1544.57 79.9829ZM1544.57 79.9829C1539.26 77.3502 1534.73 72.924 1531.24 67.6084C1534.73 72.9251 1539.26 77.3484 1544.57 79.9829ZM1540 41.3334L1540 41.3339C1540 43.1416 1540.49 44.9156 1541.42 46.4671C1542.34 48.0187 1543.68 49.2898 1545.27 50.1453C1546.86 51.0007 1548.65 51.4085 1550.46 51.3253C1552.27 51.2421 1554.02 50.6709 1555.52 49.6726L1557.23 48.542L1557.23 48.5384L1558.28 46.9358C1557.93 47.4591 1557.52 47.9513 1557.07 48.4045C1555.2 50.2798 1552.65 51.3334 1550 51.3334C1548.69 51.3334 1547.39 51.0747 1546.17 50.5722C1544.96 50.0697 1543.86 49.3331 1542.93 48.4045C1542 47.4759 1541.26 46.3735 1540.76 45.1602C1540.26 43.947 1540 42.6466 1540 41.3334ZM1540 41.3334L1540 41.3332C1540 39.7741 1540.36 38.2365 1541.06 36.8433C1541.76 35.4501 1542.78 34.2399 1544.03 33.3092C1545.28 32.3786 1546.73 31.7533 1548.27 31.4834C1549.8 31.2134 1551.38 31.3062 1552.87 31.7544C1554.37 32.2026 1555.74 32.9938 1556.87 34.0647C1558 35.1357 1558.87 36.4567 1559.4 37.9224L1561.75 37.0699L1559.4 37.9224C1559.77 38.9405 1559.97 40.0087 1560 41.0851C1559.93 38.5229 1558.89 36.0791 1557.07 34.2623C1555.2 32.387 1552.65 31.3334 1550 31.3334C1548.69 31.3334 1547.39 31.5921 1546.17 32.0946C1544.96 32.5972 1543.86 33.3338 1542.93 34.2623C1542 35.1909 1541.26 36.2933 1540.76 37.5066C1540.26 38.7198 1540 40.0202 1540 41.3334ZM1576.67 41.8101C1576.67 48.1176 1575.14 54.8728 1572.36 61.034C1575.14 54.8736 1576.67 48.1174 1576.67 41.8101ZM1561.67 53.0006L1559.65 50.9733L1561.67 52.9995L1561.67 53.0001L1561.67 53.0007L1561.67 53.0009L1561.67 53.0006L1561.67 53.0006ZM1523.33 41.8101C1523.33 48.9374 1525.29 56.6345 1528.79 63.4029C1525.29 56.6355 1523.33 48.937 1523.33 41.8101Z" stroke="#C6C404" stroke-opacity="0.32" stroke-width="5"/>
<path d="M583.333 838L580.24 836.76C579.921 837.556 579.921 838.444 580.24 839.24L583.333 838ZM676.667 838L679.76 839.24C680.079 838.444 680.079 837.556 679.76 836.76L676.667 838ZM630 868C614.573 868 603.74 860.32 596.647 852.44C592.771 848.104 589.519 843.248 586.987 838.013C586.801 837.617 586.623 837.217 586.453 836.813L586.427 836.767L583.333 838L580.24 839.24V839.253L580.26 839.28C580.315 839.421 580.373 839.561 580.433 839.7L580.953 840.853C583.763 846.676 587.376 852.075 591.687 856.893C599.6 865.687 612.093 874.667 630 874.667V868ZM583.333 838L586.427 839.24L586.453 839.187C586.616 838.78 586.794 838.38 586.987 837.987C589.519 832.751 592.771 827.896 596.647 823.56C603.733 815.68 614.573 808 630 808V801.333C612.093 801.333 599.593 810.32 591.687 819.107C587.376 823.925 583.763 829.324 580.953 835.147C580.711 835.666 580.48 836.191 580.26 836.72L580.247 836.747V836.753H580.233L583.333 838ZM630 808C645.427 808 656.26 815.68 663.353 823.56C667.229 827.896 670.481 832.751 673.013 837.987C673.199 838.383 673.377 838.783 673.547 839.187L673.573 839.233L676.667 838L679.76 836.76V836.747L679.74 836.72C679.689 836.577 679.632 836.437 679.567 836.3C678.782 834.542 677.915 832.822 676.967 831.147C674.522 826.835 671.621 822.798 668.313 819.107C660.4 810.32 647.907 801.333 630 801.333V808ZM676.667 838C675.634 837.59 674.603 837.177 673.573 836.76L673.553 836.813L673.453 837.047L673.013 838.013C670.481 843.248 667.229 848.104 663.353 852.44C656.267 860.32 645.427 868 630 868V874.667C647.907 874.667 660.407 865.68 668.313 856.9C672.624 852.08 676.237 846.678 679.047 840.853C679.289 840.334 679.52 839.809 679.74 839.28L679.753 839.253V839.247L679.76 839.24L676.667 838ZM630 848C627.348 848 624.804 846.946 622.929 845.071C621.054 843.196 620 840.652 620 838H613.333C613.333 842.42 615.089 846.659 618.215 849.785C621.34 852.911 625.58 854.667 630 854.667V848ZM640 838C640 840.652 638.946 843.196 637.071 845.071C635.196 846.946 632.652 848 630 848V854.667C634.42 854.667 638.659 852.911 641.785 849.785C644.911 846.659 646.667 842.42 646.667 838H640ZM630 828C632.652 828 635.196 829.053 637.071 830.929C638.946 832.804 640 835.348 640 838H646.667C646.667 833.58 644.911 829.34 641.785 826.215C638.659 823.089 634.42 821.333 630 821.333V828ZM630 821.333C625.58 821.333 621.34 823.089 618.215 826.215C615.089 829.34 613.333 833.58 613.333 838H620C620 835.348 621.054 832.804 622.929 830.929C624.804 829.053 627.348 828 630 828V821.333Z" fill="#C6C404" fill-opacity="0.32"/>
<path d="M473.5 60.5C473.5 67.9627 467.463 74 460 74C452.537 74 446.5 67.9627 446.5 60.5C446.5 53.0373 452.537 47 460 47C467.463 47 473.5 53.0373 473.5 60.5ZM460 89.5C464.165 89.5 468.068 88.5594 471.582 87H472C479.728 87 486 93.2716 486 101V105.5C486 107.431 484.431 109 482.5 109H437.5C435.569 109 434 107.431 434 105.5V101C434 93.2716 440.272 87 448 87H448.421C451.941 88.5571 455.83 89.5 460 89.5ZM516 63C516 69.0721 511.072 74 505 74C498.928 74 494 69.0721 494 63C494 56.9279 498.928 52 505 52C511.072 52 516 56.9279 516 63ZM505 88.25C507.729 88.25 510.254 87.7384 512.554 87.0001C519.992 87.0292 526 93.0553 526 100.5C526 102.431 524.431 104 522.5 104H499V101C499 95.9401 497.572 91.2395 495.149 87.2234C495.898 87.0802 496.665 87.0035 497.446 87.0001C499.746 87.7385 502.271 88.25 505 88.25Z" stroke="#C6C404" stroke-opacity="0.32" stroke-width="8"/>
<mask id="path-14-inside-1_2068_5869" fill="white">
<path d="M1122.9 10C1071.7 20.7142 1022.96 63.923 984.323 134.244C972.809 155.2 962.379 178.459 953.194 203.539C1005.01 216.859 1062.34 225.159 1122.9 226.959V10ZM1173.09 10V226.959C1233.65 225.149 1290.98 216.859 1342.8 203.539C1333.61 178.459 1323.18 155.2 1311.67 134.234C1273.02 63.9129 1224.28 20.7242 1173.09 10ZM993.287 34.4464C926.583 58.8094 866.553 98.5947 818.07 150.572C819.707 151.507 821.283 152.463 822.949 153.389C847.402 166.869 874.947 178.881 904.921 189.143C915.2 160.763 927.035 134.204 940.355 109.959C955.915 81.629 973.672 56.1363 993.287 34.4464ZM1302.7 34.4464C1322.32 56.1363 1340.08 81.629 1355.64 109.959C1368.96 134.204 1380.79 160.763 1391.05 189.163C1421.03 178.902 1448.59 166.88 1473.04 153.379C1474.72 152.463 1476.28 151.507 1477.92 150.572C1429.44 98.5984 1369.41 58.8165 1302.7 34.4565M785.466 189.726C732.526 260.913 701.749 346.188 697 434.844H860.702C862.64 364.171 872.718 297.321 889.522 237.14C856.717 225.943 826.262 212.654 798.747 197.463C794.22 194.968 789.843 192.332 785.476 189.716M1510.53 189.716C1506.17 192.332 1501.8 194.948 1497.26 197.463C1469.73 212.654 1439.24 225.953 1406.42 237.15C1423.16 297.331 1433.2 364.181 1435.13 434.834H1599C1594.25 346.178 1563.47 260.903 1510.53 189.716ZM937.776 251.567C922.437 306.868 912.881 368.97 910.934 434.834H1122.9V277.14C1057.09 275.329 994.632 266.426 937.766 251.587M1358.22 251.587C1301.37 266.426 1238.89 275.329 1173.09 277.14V434.844H1385.07C1383.12 368.98 1373.56 306.888 1358.22 251.587ZM697.01 485.146C701.756 573.801 732.53 659.075 785.466 730.264C789.833 727.648 794.2 725.032 798.737 722.517C826.241 707.346 856.717 694.047 889.512 682.83C872.708 622.659 862.63 555.819 860.692 485.146H697.01ZM910.923 485.146C912.871 550.98 922.417 613.052 937.745 668.333C994.612 653.454 1057.07 644.51 1122.9 642.689V485.146H910.923ZM1173.09 485.146V642.689C1238.92 644.5 1301.38 653.454 1358.24 668.333C1373.57 613.052 1383.12 550.98 1385.07 485.146H1173.09ZM1435.14 485.146C1433.21 555.799 1423.17 622.639 1406.43 682.809C1439.24 694.027 1469.73 707.336 1497.25 722.527C1501.78 725.022 1506.16 727.658 1510.52 730.274C1563.47 659.084 1594.24 573.805 1598.99 485.146H1435.14ZM1122.9 693.031C1062.34 694.841 1005.01 703.131 953.194 716.451C962.379 741.531 972.809 764.79 984.323 785.756C1022.97 856.077 1071.71 899.276 1122.9 910V693.031ZM1173.09 693.031V909.99C1224.29 899.276 1273.03 856.067 1311.67 785.746C1323.18 764.79 1333.61 741.531 1342.8 716.451C1290.98 703.131 1233.65 694.831 1173.09 693.031ZM1391.05 730.817C1380.78 759.207 1368.97 785.776 1355.64 810.021C1340.08 838.351 1322.32 863.844 1302.7 885.533C1369.41 861.171 1429.44 821.385 1477.92 769.408C1476.28 768.472 1474.71 767.517 1473.04 766.591C1448.59 753.11 1421.03 741.078 1391.05 730.817ZM904.921 730.837C874.947 741.098 847.402 753.1 822.949 766.601C821.273 767.517 819.707 768.472 818.07 769.408C866.553 821.385 926.583 861.171 993.287 885.533C973.672 863.844 955.915 838.351 940.345 810.021C927.035 785.776 915.2 759.217 904.921 730.837Z"/>
</mask>
<path d="M1122.9 10C1071.7 20.7142 1022.96 63.923 984.323 134.244C972.809 155.2 962.379 178.459 953.194 203.539C1005.01 216.859 1062.34 225.159 1122.9 226.959V10ZM1173.09 10V226.959C1233.65 225.149 1290.98 216.859 1342.8 203.539C1333.61 178.459 1323.18 155.2 1311.67 134.234C1273.02 63.9129 1224.28 20.7242 1173.09 10ZM993.287 34.4464C926.583 58.8094 866.553 98.5947 818.07 150.572C819.707 151.507 821.283 152.463 822.949 153.389C847.402 166.869 874.947 178.881 904.921 189.143C915.2 160.763 927.035 134.204 940.355 109.959C955.915 81.629 973.672 56.1363 993.287 34.4464ZM1302.7 34.4464C1322.32 56.1363 1340.08 81.629 1355.64 109.959C1368.96 134.204 1380.79 160.763 1391.05 189.163C1421.03 178.902 1448.59 166.88 1473.04 153.379C1474.72 152.463 1476.28 151.507 1477.92 150.572C1429.44 98.5984 1369.41 58.8165 1302.7 34.4565M785.466 189.726C732.526 260.913 701.749 346.188 697 434.844H860.702C862.64 364.171 872.718 297.321 889.522 237.14C856.717 225.943 826.262 212.654 798.747 197.463C794.22 194.968 789.843 192.332 785.476 189.716M1510.53 189.716C1506.17 192.332 1501.8 194.948 1497.26 197.463C1469.73 212.654 1439.24 225.953 1406.42 237.15C1423.16 297.331 1433.2 364.181 1435.13 434.834H1599C1594.25 346.178 1563.47 260.903 1510.53 189.716ZM937.776 251.567C922.437 306.868 912.881 368.97 910.934 434.834H1122.9V277.14C1057.09 275.329 994.632 266.426 937.766 251.587M1358.22 251.587C1301.37 266.426 1238.89 275.329 1173.09 277.14V434.844H1385.07C1383.12 368.98 1373.56 306.888 1358.22 251.587ZM697.01 485.146C701.756 573.801 732.53 659.075 785.466 730.264C789.833 727.648 794.2 725.032 798.737 722.517C826.241 707.346 856.717 694.047 889.512 682.83C872.708 622.659 862.63 555.819 860.692 485.146H697.01ZM910.923 485.146C912.871 550.98 922.417 613.052 937.745 668.333C994.612 653.454 1057.07 644.51 1122.9 642.689V485.146H910.923ZM1173.09 485.146V642.689C1238.92 644.5 1301.38 653.454 1358.24 668.333C1373.57 613.052 1383.12 550.98 1385.07 485.146H1173.09ZM1435.14 485.146C1433.21 555.799 1423.17 622.639 1406.43 682.809C1439.24 694.027 1469.73 707.336 1497.25 722.527C1501.78 725.022 1506.16 727.658 1510.52 730.274C1563.47 659.084 1594.24 573.805 1598.99 485.146H1435.14ZM1122.9 693.031C1062.34 694.841 1005.01 703.131 953.194 716.451C962.379 741.531 972.809 764.79 984.323 785.756C1022.97 856.077 1071.71 899.276 1122.9 910V693.031ZM1173.09 693.031V909.99C1224.29 899.276 1273.03 856.067 1311.67 785.746C1323.18 764.79 1333.61 741.531 1342.8 716.451C1290.98 703.131 1233.65 694.831 1173.09 693.031ZM1391.05 730.817C1380.78 759.207 1368.97 785.776 1355.64 810.021C1340.08 838.351 1322.32 863.844 1302.7 885.533C1369.41 861.171 1429.44 821.385 1477.92 769.408C1476.28 768.472 1474.71 767.517 1473.04 766.591C1448.59 753.11 1421.03 741.078 1391.05 730.817ZM904.921 730.837C874.947 741.098 847.402 753.1 822.949 766.601C821.273 767.517 819.707 768.472 818.07 769.408C866.553 821.385 926.583 861.171 993.287 885.533C973.672 863.844 955.915 838.351 940.345 810.021C927.035 785.776 915.2 759.217 904.921 730.837Z" fill="#2B0035" fill-opacity="0.03"/>
<path d="M1122.9 10H1123.4V9.38453L1122.8 9.5106L1122.9 10ZM984.323 134.244L984.761 134.485L984.761 134.485L984.323 134.244ZM953.194 203.539L952.725 203.367L952.535 203.886L953.07 204.023L953.194 203.539ZM1122.9 226.959L1122.88 227.459L1123.4 227.474V226.959H1122.9ZM1173.09 10L1173.19 9.51063L1172.59 9.38438V10H1173.09ZM1173.09 226.959H1172.59V227.475L1173.11 227.459L1173.09 226.959ZM1342.8 203.539L1342.92 204.023L1343.46 203.886L1343.27 203.367L1342.8 203.539ZM1311.67 134.234L1312.11 133.993L1312.11 133.993L1311.67 134.234ZM993.287 34.4464L993.658 34.7818L993.115 33.9768L993.287 34.4464ZM818.07 150.572L817.705 150.231L817.274 150.693L817.822 151.006L818.07 150.572ZM822.949 153.389L822.706 153.826L822.708 153.827L822.949 153.389ZM904.921 189.143L904.759 189.616L905.223 189.775L905.391 189.313L904.921 189.143ZM940.355 109.959L940.794 110.199L940.794 110.199L940.355 109.959ZM1355.64 109.959L1356.08 109.718L1356.08 109.718L1355.64 109.959ZM1391.05 189.163L1390.58 189.333L1390.75 189.795L1391.21 189.636L1391.05 189.163ZM1473.04 153.379L1472.8 152.94L1472.8 152.941L1473.04 153.379ZM1477.92 150.572L1478.17 151.006L1478.72 150.692L1478.29 150.231L1477.92 150.572ZM697 434.844L696.501 434.818L696.472 435.344H697V434.844ZM860.702 434.844V435.344H861.189L861.202 434.858L860.702 434.844ZM889.522 237.14L890.004 237.275L890.131 236.82L889.684 236.667L889.522 237.14ZM798.747 197.463L798.989 197.025L798.988 197.025L798.747 197.463ZM1510.53 189.716L1510.93 189.418L1510.66 189.055L1510.28 189.287L1510.53 189.716ZM1497.26 197.463L1497.5 197.9L1497.51 197.9L1497.26 197.463ZM1406.42 237.15L1406.26 236.677L1405.81 236.83L1405.94 237.284L1406.42 237.15ZM1435.13 434.834L1434.63 434.848L1434.64 435.334H1435.13V434.834ZM1599 434.834V435.334H1599.53L1599.5 434.808L1599 434.834ZM910.934 434.834L910.434 434.82L910.419 435.334H910.934V434.834ZM1122.9 434.834V435.334H1123.4V434.834H1122.9ZM1122.9 277.14H1123.4V276.653L1122.91 276.64L1122.9 277.14ZM1358.22 251.587L1358.71 251.453L1358.57 250.979L1358.1 251.103L1358.22 251.587ZM1173.09 277.14L1173.08 276.64L1172.59 276.653V277.14H1173.09ZM1173.09 434.844H1172.59V435.344H1173.09V434.844ZM1385.07 434.844V435.344H1385.58L1385.57 434.83L1385.07 434.844ZM697.01 485.146V484.646H696.483L696.511 485.172L697.01 485.146ZM785.466 730.264L785.065 730.562L785.335 730.925L785.723 730.693L785.466 730.264ZM798.737 722.517L798.495 722.079L798.494 722.08L798.737 722.517ZM889.512 682.83L889.674 683.303L890.121 683.15L889.994 682.695L889.512 682.83ZM860.692 485.146L861.192 485.132L861.179 484.646H860.692V485.146ZM910.923 485.146V484.646H910.408L910.424 485.16L910.923 485.146ZM937.745 668.333L937.264 668.466L937.395 668.941L937.872 668.816L937.745 668.333ZM1122.9 642.689L1122.91 643.189L1123.4 643.175V642.689H1122.9ZM1122.9 485.146H1123.4V484.646H1122.9V485.146ZM1173.09 485.146V484.646H1172.59V485.146H1173.09ZM1173.09 642.689H1172.59V643.176L1173.08 643.189L1173.09 642.689ZM1358.24 668.333L1358.12 668.816L1358.59 668.941L1358.73 668.466L1358.24 668.333ZM1385.07 485.146L1385.57 485.16L1385.58 484.646H1385.07V485.146ZM1435.14 485.146V484.646H1434.65L1434.64 485.132L1435.14 485.146ZM1406.43 682.809L1405.95 682.675L1405.82 683.13L1406.27 683.283L1406.43 682.809ZM1497.25 722.527L1497.01 722.965L1497.01 722.965L1497.25 722.527ZM1510.52 730.274L1510.27 730.703L1510.65 730.935L1510.92 730.572L1510.52 730.274ZM1598.99 485.146L1599.49 485.172L1599.52 484.646H1598.99V485.146ZM1122.9 693.031H1123.4V692.515L1122.88 692.531L1122.9 693.031ZM953.194 716.451L953.07 715.967L952.535 716.104L952.725 716.623L953.194 716.451ZM984.323 785.756L983.884 785.997L983.884 785.997L984.323 785.756ZM1122.9 910L1122.8 910.489L1123.4 910.616V910H1122.9ZM1173.09 693.031L1173.11 692.531L1172.59 692.516V693.031H1173.09ZM1173.09 909.99H1172.59V910.605L1173.19 910.479L1173.09 909.99ZM1311.67 785.746L1311.23 785.505L1311.23 785.505L1311.67 785.746ZM1342.8 716.451L1343.27 716.623L1343.46 716.104L1342.92 715.967L1342.8 716.451ZM1391.05 730.817L1391.21 730.344L1390.75 730.185L1390.58 730.647L1391.05 730.817ZM1355.64 810.021L1356.08 810.262L1356.08 810.262L1355.64 810.021ZM1302.7 885.533L1302.33 885.198L1302.87 886.003L1302.7 885.533ZM1477.92 769.408L1478.29 769.749L1478.72 769.287L1478.17 768.974L1477.92 769.408ZM1473.04 766.591L1473.28 766.154L1473.28 766.153L1473.04 766.591ZM904.921 730.837L905.391 730.667L905.223 730.205L904.759 730.364L904.921 730.837ZM822.949 766.601L823.189 767.04L823.191 767.039L822.949 766.601ZM818.07 769.408L817.822 768.974L817.274 769.287L817.705 769.749L818.07 769.408ZM993.287 885.533L993.115 886.003L993.658 885.198L993.287 885.533ZM940.345 810.021L939.907 810.262L939.907 810.262L940.345 810.021ZM1122.8 9.5106C1071.4 20.2671 1022.56 63.6193 983.884 134.003L984.761 134.485C1023.36 64.2266 1072.01 21.1612 1123 10.4894L1122.8 9.5106ZM983.884 134.003C972.357 154.984 961.917 178.266 952.725 203.367L953.664 203.711C962.841 178.651 973.261 155.416 984.761 134.485L983.884 134.003ZM953.07 204.023C1004.92 217.353 1062.29 225.657 1122.88 227.459L1122.91 226.46C1062.39 224.66 1005.1 216.365 953.319 203.055L953.07 204.023ZM1123.4 226.959V10H1122.4V226.959H1123.4ZM1172.59 10V226.959H1173.59V10H1172.59ZM1173.11 227.459C1233.7 225.647 1291.07 217.353 1342.92 204.023L1342.67 203.055C1290.89 216.365 1233.6 224.65 1173.08 226.46L1173.11 227.459ZM1343.27 203.367C1334.07 178.266 1323.63 154.984 1312.11 133.993L1311.23 134.475C1322.73 155.416 1333.15 178.651 1342.33 203.711L1343.27 203.367ZM1312.11 133.993C1273.42 63.6092 1224.58 20.2772 1173.19 9.51063L1172.99 10.4894C1223.97 21.1712 1272.62 64.2166 1311.23 134.475L1312.11 133.993ZM993.115 33.9768C926.338 58.3667 866.241 98.1962 817.705 150.231L818.436 150.913C866.865 98.9933 926.829 59.252 993.458 34.9161L993.115 33.9768ZM817.822 151.006C819.44 151.931 821.04 152.901 822.706 153.826L823.192 152.952C821.525 152.026 819.974 151.084 818.319 150.138L817.822 151.006ZM822.708 153.827C847.189 167.323 874.761 179.346 904.759 189.616L905.083 188.67C875.132 178.417 847.615 166.416 823.19 152.951L822.708 153.827ZM905.391 189.313C915.662 160.954 927.487 134.419 940.794 110.199L939.917 109.718C926.583 133.988 914.737 160.571 904.451 188.973L905.391 189.313ZM940.794 110.199C956.337 81.8988 974.073 56.439 993.658 34.7818L992.916 34.111C973.272 55.8337 955.492 81.3591 939.917 109.718L940.794 110.199ZM1302.33 34.7818C1321.92 56.439 1339.65 81.8988 1355.21 110.199L1356.08 109.718C1340.5 81.3591 1322.72 55.8337 1303.07 34.111L1302.33 34.7818ZM1355.21 110.199C1368.5 134.419 1380.33 160.954 1390.58 189.333L1391.52 188.993C1381.25 160.571 1369.41 133.988 1356.08 109.718L1355.21 110.199ZM1391.21 189.636C1421.22 179.366 1448.8 167.333 1473.28 153.816L1472.8 152.941C1448.38 166.426 1420.85 178.437 1390.89 188.69L1391.21 189.636ZM1473.28 153.817C1474.96 152.9 1476.55 151.931 1478.17 151.006L1477.67 150.138C1476.02 151.084 1474.47 152.026 1472.8 152.94L1473.28 153.817ZM1478.29 150.231C1429.75 98.1998 1369.65 58.3739 1302.87 33.9868L1302.53 34.9261C1369.16 59.2592 1429.12 98.9969 1477.55 150.913L1478.29 150.231ZM785.065 189.428C732.066 260.694 701.255 346.063 696.501 434.818L697.499 434.871C702.243 346.313 732.986 261.133 785.868 190.025L785.065 189.428ZM697 435.344H860.702V434.344H697V435.344ZM861.202 434.858C863.139 364.223 873.211 297.413 890.004 237.275L889.04 237.006C872.225 297.228 862.141 364.119 860.203 434.831L861.202 434.858ZM889.684 236.667C856.903 225.478 826.475 212.2 798.989 197.025L798.505 197.9C826.048 213.107 856.531 226.408 889.361 237.613L889.684 236.667ZM798.988 197.025C794.471 194.535 790.102 191.904 785.733 189.287L785.219 190.145C789.584 192.76 793.969 195.4 798.506 197.901L798.988 197.025ZM1510.28 189.287C1505.91 191.904 1501.55 194.515 1497.02 197.025L1497.51 197.9C1502.05 195.38 1506.42 192.76 1510.79 190.145L1510.28 189.287ZM1497.02 197.025C1469.52 212.2 1439.06 225.489 1406.26 236.677L1406.58 237.624C1439.43 226.418 1469.94 213.107 1497.5 197.9L1497.02 197.025ZM1405.94 237.284C1422.67 297.423 1432.7 364.233 1434.63 434.848L1435.63 434.821C1433.7 364.129 1423.65 297.239 1406.9 237.016L1405.94 237.284ZM1435.13 435.334H1599V434.334H1435.13V435.334ZM1599.5 434.808C1594.74 346.053 1563.93 260.684 1510.93 189.418L1510.13 190.015C1563.01 261.123 1593.76 346.303 1598.5 434.861L1599.5 434.808ZM937.294 251.433C921.944 306.775 912.382 368.917 910.434 434.82L911.433 434.849C913.38 369.023 922.93 306.961 938.257 251.7L937.294 251.433ZM910.934 435.334H1122.9V434.334H910.934V435.334ZM1123.4 434.834V277.14H1122.4V434.834H1123.4ZM1122.91 276.64C1057.14 274.83 994.719 265.932 937.892 251.103L937.639 252.071C994.544 266.92 1057.04 275.828 1122.89 277.64L1122.91 276.64ZM1358.1 251.103C1301.28 265.932 1238.84 274.83 1173.08 276.64L1173.1 277.64C1238.94 275.828 1301.46 266.92 1358.35 252.071L1358.1 251.103ZM1172.59 277.14V434.844H1173.59V277.14H1172.59ZM1173.09 435.344H1385.07V434.344H1173.09V435.344ZM1385.57 434.83C1383.62 368.927 1374.06 306.795 1358.71 251.453L1357.74 251.72C1373.07 306.981 1382.62 369.033 1384.57 434.859L1385.57 434.83ZM696.511 485.172C701.262 573.926 732.07 659.295 785.065 730.562L785.868 729.965C732.99 658.856 702.25 573.676 697.509 485.119L696.511 485.172ZM785.723 730.693C790.091 728.076 794.451 725.465 798.979 722.955L798.494 722.08C793.949 724.6 789.575 727.22 785.209 729.835L785.723 730.693ZM798.978 722.955C826.455 707.8 856.904 694.511 889.674 683.303L889.35 682.356C856.531 693.582 826.028 706.893 798.495 722.079L798.978 722.955ZM889.994 682.695C873.201 622.567 863.129 555.767 861.192 485.132L860.193 485.159C862.131 555.871 872.215 622.752 889.03 682.964L889.994 682.695ZM860.692 484.646H697.01V485.646H860.692V484.646ZM910.424 485.16C912.372 551.033 921.924 613.145 937.264 668.466L938.227 668.199C922.91 612.959 913.37 550.927 911.423 485.131L910.424 485.16ZM937.872 668.816C994.7 653.947 1057.12 645.009 1122.91 643.189L1122.89 642.189C1057.02 644.011 994.524 652.96 937.619 667.849L937.872 668.816ZM1123.4 642.689V485.146H1122.4V642.689H1123.4ZM1122.9 484.646H910.923V485.646H1122.9V484.646ZM1172.59 485.146V642.689H1173.59V485.146H1172.59ZM1173.08 643.189C1238.87 644.999 1301.29 653.947 1358.12 668.816L1358.37 667.849C1301.47 652.96 1238.97 644.001 1173.1 642.189L1173.08 643.189ZM1358.73 668.466C1374.07 613.145 1383.62 551.033 1385.57 485.16L1384.57 485.131C1382.62 550.927 1373.08 612.959 1357.76 668.199L1358.73 668.466ZM1385.07 484.646H1173.09V485.646H1385.07V484.646ZM1434.64 485.132C1432.71 555.747 1422.68 622.547 1405.95 682.675L1406.91 682.943C1423.66 622.731 1433.71 555.85 1435.64 485.159L1434.64 485.132ZM1406.27 683.283C1439.06 694.491 1469.52 707.79 1497.01 722.965L1497.49 722.089C1469.94 706.883 1439.43 693.562 1406.59 682.336L1406.27 683.283ZM1497.01 722.965C1501.53 725.455 1505.9 728.086 1510.27 730.703L1510.78 729.845C1506.42 727.23 1502.03 724.59 1497.49 722.089L1497.01 722.965ZM1510.92 730.572C1563.93 659.303 1594.74 573.93 1599.49 485.172L1598.49 485.119C1593.75 573.681 1563.01 658.864 1510.12 729.975L1510.92 730.572ZM1598.99 484.646H1435.14V485.646H1598.99V484.646ZM1122.88 692.531C1062.29 694.343 1004.92 702.637 953.07 715.967L953.319 716.935C1005.1 703.625 1062.39 695.34 1122.91 693.53L1122.88 692.531ZM952.725 716.623C961.917 741.724 972.357 765.006 983.884 785.997L984.761 785.515C973.261 764.574 962.841 741.338 953.664 716.279L952.725 716.623ZM983.884 785.997C1022.57 856.381 1071.41 899.723 1122.8 910.489L1123 909.511C1072.02 898.829 1023.37 855.773 984.761 785.515L983.884 785.997ZM1123.4 910V693.031H1122.4V910H1123.4ZM1172.59 693.031V909.99H1173.59V693.031H1172.59ZM1173.19 910.479C1224.59 899.723 1273.43 856.371 1312.11 785.987L1311.23 785.505C1272.63 855.763 1223.98 898.829 1172.99 909.501L1173.19 910.479ZM1312.11 785.987C1323.63 765.006 1334.07 741.724 1343.27 716.623L1342.33 716.279C1333.15 741.338 1322.73 764.574 1311.23 785.505L1312.11 785.987ZM1342.92 715.967C1291.07 702.637 1233.7 694.333 1173.11 692.531L1173.08 693.53C1233.6 695.33 1290.89 703.625 1342.67 716.935L1342.92 715.967ZM1390.58 730.647C1380.32 759.016 1368.51 785.561 1355.21 809.781L1356.08 810.262C1369.42 785.991 1381.24 759.398 1391.52 730.987L1390.58 730.647ZM1355.21 809.78C1339.65 838.081 1321.92 863.541 1302.33 885.198L1303.07 885.869C1322.72 864.146 1340.5 838.621 1356.08 810.262L1355.21 809.78ZM1302.87 886.003C1369.65 861.613 1429.75 821.784 1478.29 769.749L1477.55 769.067C1429.13 820.987 1369.16 860.728 1302.53 885.064L1302.87 886.003ZM1478.17 768.974C1476.55 768.049 1474.95 767.079 1473.28 766.154L1472.8 767.028C1474.47 767.954 1476.02 768.896 1477.67 769.842L1478.17 768.974ZM1473.28 766.153C1448.8 752.657 1421.22 740.613 1391.21 730.344L1390.89 731.29C1420.85 741.543 1448.38 753.564 1472.8 767.029L1473.28 766.153ZM904.759 730.364C874.761 740.634 847.189 752.647 822.707 766.163L823.191 767.039C847.615 753.554 875.132 741.563 905.083 731.31L904.759 730.364ZM822.709 766.162C821.03 767.08 819.44 768.049 817.822 768.974L818.319 769.842C819.973 768.896 821.515 767.954 823.189 767.04L822.709 766.162ZM817.705 769.749C866.241 821.784 926.338 861.613 993.115 886.003L993.458 885.064C926.829 860.728 866.865 820.987 818.436 769.067L817.705 769.749ZM993.658 885.198C974.073 863.541 956.337 838.081 940.784 809.78L939.907 810.262C955.492 838.621 973.272 864.146 992.916 885.869L993.658 885.198ZM940.784 809.781C927.487 785.561 915.662 759.025 905.391 730.667L904.451 731.007C914.737 759.409 926.583 785.992 939.907 810.262L940.784 809.781Z" fill="#BD44D9" fill-opacity="0.32" mask="url(#path-14-inside-1_2068_5869)"/>
<defs>
<clipPath id="clip0_2068_5869">
<rect width="80" height="80" fill="white" transform="translate(80 138)"/>
</clipPath>
</defs>
</svg>
