<svg width="1000" height="400" viewBox="0 0 1000 400" fill="none" xmlns="http://www.w3.org/2000/svg">
<path d="M337.043 356.582V169.889C337.043 157.492 347.062 147.422 359.44 147.422H368.632C380.99 147.422 391.029 157.472 391.029 169.889C391.029 172.578 393.186 174.742 395.867 174.742C397.843 174.742 399.556 173.488 400.343 171.668C403.931 163.337 409.414 157.169 416.813 153.185C425.098 148.716 434.956 146.471 446.427 146.471H450.721C464.167 146.471 475.073 157.411 475.073 170.9C475.073 184.388 464.167 195.329 450.721 195.329H445.459C429.533 195.329 416.631 199.575 406.774 208.028C396.895 216.501 391.977 229.505 391.977 247.078V356.562C391.977 371.769 379.679 384.105 364.52 384.105C349.36 384.105 337.063 371.769 337.063 356.562L337.043 356.582Z" fill="#EAEAEA"/>
<path d="M613.607 390.839C590.041 390.839 569.257 385.804 551.275 375.753C533.273 365.682 519.282 351.486 509.243 333.104C499.204 314.742 494.204 293.266 494.204 268.655V262.912C494.204 237.998 499.143 216.441 509.021 198.22C518.879 180.02 532.728 165.885 550.569 155.814C568.39 145.743 588.932 140.728 612.176 140.728C635.42 140.728 655.156 145.763 672.351 155.814C689.547 165.885 702.913 180.02 712.468 198.22C722.024 216.421 726.802 237.674 726.802 261.941C726.802 272.801 718.032 281.577 707.227 281.577H554.803C551.9 281.577 549.682 284.125 549.985 287.017C551.618 303.033 558.028 316.077 569.197 326.127C581.615 337.31 596.895 342.892 615.039 342.892C633.182 342.892 646.084 338.989 654.692 331.163C658.119 328.028 661.224 324.732 664.005 321.274C671.323 312.154 684.165 309.687 694.547 315.045C708.759 322.406 712.529 341.092 702.228 353.347C701.603 354.095 700.957 354.843 700.312 355.591C691.866 365.339 680.637 373.65 666.646 380.506C652.636 387.381 634.956 390.799 613.628 390.799L613.607 390.839ZM556.033 239.919H665.437C668.461 239.919 670.719 237.169 670.215 234.176C668.078 221.193 662.332 210.657 652.999 202.548C642.334 193.286 628.545 188.655 611.672 188.655C594.799 188.655 580.143 193.286 569.64 202.548C560.528 210.576 554.42 221.011 551.275 233.852C550.529 236.926 552.827 239.919 555.992 239.919H556.033Z" fill="#EAEAEA"/>
<path d="M773.612 356.583V174.5C773.612 159.555 785.687 147.422 800.605 147.422C815.503 147.422 827.598 159.535 827.598 174.5V175.632C827.598 178.322 829.755 180.486 832.437 180.486H832.759C834.573 180.486 836.166 179.454 837.033 177.857C841.347 169.889 848.403 162.306 858.16 155.106C868.985 147.119 885.395 143.135 907.348 143.135C925.492 143.135 941.579 147.28 955.589 155.592C969.6 163.903 980.506 175.41 988.308 190.091C996.109 204.793 1000 222.205 1000 242.326V356.603C1000 371.81 987.703 384.146 972.543 384.146C957.384 384.146 945.086 371.81 945.086 356.603V246.633C945.086 227.462 940.389 213.185 930.995 203.741C921.601 194.318 908.316 189.606 891.12 189.606C871.687 189.606 856.406 196.077 845.258 209.02C834.11 221.962 828.546 240.405 828.546 264.368V356.603C828.546 371.81 816.249 384.146 801.089 384.146C785.929 384.146 773.632 371.81 773.632 356.603L773.612 356.583Z" fill="#EAEAEA"/>
<path d="M28.3241 213.913C31.2472 215.491 34.3718 216.239 37.4764 216.239C44.3507 216.239 50.983 212.558 54.4706 206.067C71.9688 173.569 105.675 153.387 142.446 153.387C176.031 153.387 207.177 170.172 225.784 198.301C231.67 207.22 243.665 209.646 252.535 203.741C261.426 197.836 263.845 185.804 257.958 176.906C232.195 137.937 189.014 114.682 142.446 114.682C111.3 114.682 81.7461 125.137 57.9381 143.539V24.7523C57.9381 13.4075 48.7857 4.22656 37.4764 4.22656C26.167 4.22656 17.0146 13.4075 17.0146 24.7523V194.479C17.0146 198.423 18.1436 202.083 20.0587 205.218C21.7521 208.817 24.5543 211.911 28.3039 213.954L28.3241 213.913Z" fill="#EAEAEA"/>
<path d="M37.4761 220.445C33.6055 220.445 29.7552 219.474 26.3281 217.614C21.9939 215.268 18.5465 211.668 16.3895 207.199C14.0712 203.337 12.8416 198.928 12.8416 194.459V24.732C12.8416 11.1021 23.8888 0 37.4963 0C51.1038 0 62.151 11.1021 62.151 24.732V135.288C85.7172 119.232 113.92 110.455 142.466 110.455C190.424 110.455 234.916 134.419 261.466 174.56C268.622 185.379 265.659 200.04 254.874 207.219C244.068 214.398 229.473 211.426 222.316 200.607C204.496 173.67 174.66 157.573 142.486 157.573C107.247 157.573 74.9522 176.926 58.1797 208.049C54.0672 215.672 46.1446 220.425 37.4963 220.425L37.4761 220.445ZM30.3196 210.212C32.5573 211.426 34.9562 212.032 37.4761 212.032C43.0401 212.032 48.1605 208.979 50.8014 204.065C69.0253 170.212 104.143 149.181 142.466 149.181C177.462 149.181 209.919 166.673 229.292 195.956C233.888 202.932 243.302 204.833 250.257 200.202C257.212 195.571 259.107 186.148 254.491 179.171C229.513 141.375 187.622 118.827 142.486 118.827C112.993 118.827 83.8827 128.756 60.5383 146.815L53.8051 152.012V24.6916C53.8051 15.6926 46.5075 8.37206 37.5367 8.37206C28.5658 8.37206 21.2681 15.6926 21.2681 24.6916V194.419C21.2681 197.412 22.1147 200.364 23.6871 202.953L23.909 203.357C25.3 206.289 27.5175 208.655 30.36 210.192L30.3196 210.212Z" fill="#EAEAEA"/>
<path d="M40.8426 239.515C20.6027 239.515 4.19312 255.976 4.19312 276.279C4.19312 296.582 20.6027 313.044 40.8426 313.044C61.0825 313.044 77.4922 296.582 77.4922 276.279C77.4922 255.976 61.0825 239.515 40.8426 239.515Z" fill="#EAEAEA"/>
<path d="M40.8427 317.25C18.3248 317.25 0 298.868 0 276.279C0 253.691 18.3248 235.309 40.8427 235.309C63.3606 235.309 81.6854 253.691 81.6854 276.279C81.6854 298.868 63.3606 317.25 40.8427 317.25ZM40.8427 243.721C22.9413 243.721 8.38632 258.322 8.38632 276.279C8.38632 294.237 22.9413 308.837 40.8427 308.837C58.7441 308.837 73.2992 294.237 73.2992 276.279C73.2992 258.322 58.7441 243.721 40.8427 243.721Z" fill="#EAEAEA"/>
<path d="M245.036 239.515C224.796 239.515 208.386 255.976 208.386 276.279C208.386 296.582 224.796 313.044 245.036 313.044C265.276 313.044 281.685 296.582 281.685 276.279C281.685 255.976 265.276 239.515 245.036 239.515Z" fill="#EAEAEA"/>
<path d="M245.036 317.25C222.518 317.25 204.193 298.868 204.193 276.279C204.193 253.691 222.518 235.309 245.036 235.309C267.554 235.309 285.879 253.691 285.879 276.279C285.879 298.868 267.554 317.25 245.036 317.25ZM245.036 243.721C227.134 243.721 212.579 258.322 212.579 276.279C212.579 294.237 227.134 308.837 245.036 308.837C262.937 308.837 277.492 294.237 277.492 276.279C277.492 258.322 262.937 243.721 245.036 243.721Z" fill="#EAEAEA"/>
<path d="M189.154 340.283C183.006 340.283 177.583 343.296 174.216 347.907C174.216 347.907 173.995 348.129 173.874 348.251C173.793 348.331 173.712 348.412 173.632 348.493C173.531 348.594 173.41 348.696 173.309 348.797C173.168 348.938 173.007 349.08 172.825 349.221C172.725 349.302 172.624 349.403 172.503 349.484C172.261 349.686 172.019 349.889 171.737 350.091C171.656 350.151 171.576 350.212 171.475 350.293C171.112 350.576 170.709 350.88 170.265 351.183C170.265 351.183 170.265 351.183 170.245 351.183C169.297 351.83 168.209 352.518 166.939 353.205H166.919C166.334 353.529 165.689 353.852 165.024 354.156C164.883 354.216 164.741 354.277 164.6 354.338C164.056 354.6 163.471 354.843 162.867 355.086C162.665 355.167 162.443 355.248 162.222 355.328C161.657 355.551 161.093 355.753 160.488 355.955C160.206 356.056 159.944 356.137 159.661 356.218C159.077 356.4 158.492 356.582 157.887 356.744C157.565 356.825 157.242 356.926 156.9 357.007C156.295 357.169 155.67 357.29 155.025 357.432C154.662 357.512 154.299 357.593 153.916 357.654C153.251 357.775 152.565 357.876 151.88 357.978C151.497 358.038 151.114 358.099 150.711 358.139C149.965 358.24 149.158 358.301 148.372 358.362C148.009 358.382 147.646 358.443 147.263 358.463C146.074 358.544 144.844 358.584 143.574 358.584C143.514 358.584 143.473 358.584 143.413 358.584C142.143 358.584 140.893 358.544 139.704 358.463C139.623 358.463 139.542 358.463 139.462 358.443C138.313 358.362 137.184 358.261 136.095 358.139C135.067 358.018 134.079 357.856 133.112 357.674C133.011 357.674 132.89 357.634 132.769 357.614C132.124 357.492 131.519 357.351 130.894 357.209C130.511 357.128 130.088 357.047 129.705 356.946C129.1 356.805 128.556 356.623 127.991 356.461C127.628 356.36 127.265 356.259 126.923 356.158C126.419 355.996 125.955 355.814 125.471 355.652C125.108 355.531 124.725 355.409 124.383 355.268C124.02 355.126 123.717 354.985 123.375 354.843C122.951 354.661 122.508 354.479 122.105 354.297C121.802 354.156 121.52 354.014 121.238 353.872C120.855 353.69 120.432 353.488 120.069 353.306C119.686 353.104 119.363 352.902 119 352.7C118.758 352.558 118.496 352.437 118.274 352.295C117.912 352.093 117.609 351.87 117.287 351.668C117.105 351.547 116.904 351.426 116.722 351.324C116.44 351.122 116.178 350.94 115.916 350.758C115.754 350.637 115.573 350.516 115.412 350.414C115.109 350.192 114.847 349.969 114.585 349.767C114.505 349.707 114.424 349.646 114.343 349.585C114.041 349.343 113.799 349.12 113.557 348.918C113.557 348.918 113.517 348.877 113.497 348.857C112.771 348.21 112.368 347.765 112.307 347.684C108.921 343.195 103.558 340.263 97.5104 340.263C87.2695 340.263 78.9437 348.594 78.9437 358.888C78.9437 363.559 80.6774 367.826 83.4997 371.082C85.4955 373.609 104.123 395.794 143.494 395.794C144.723 395.794 145.933 395.773 147.143 395.733C175.124 394.722 191.956 382.285 199.355 375.187C201.754 372.882 203.165 371.142 203.629 370.536H203.608C206.149 367.32 207.681 363.296 207.681 358.888C207.681 348.615 199.375 340.263 189.114 340.263L189.154 340.283ZM112.348 347.705C112.348 347.705 112.368 347.745 112.388 347.765C112.529 347.947 112.61 348.048 112.61 348.048C112.529 347.947 112.428 347.826 112.348 347.705Z" fill="#EAEAEA"/>
<path d="M143.534 400C102.167 400 82.3708 376.4 80.2541 373.69C76.7665 369.666 74.7909 364.368 74.7909 358.887C74.7909 346.309 84.9914 336.076 97.5305 336.076C104.647 336.076 111.219 339.332 115.573 345.035L115.634 345.096C115.634 345.096 115.916 345.359 116.319 345.743L117.932 347.057L117.589 347.704L117.871 348.089L118.395 347.361L119.081 347.846L117.307 351.688L119.565 348.149L129.604 352.578C129.967 352.679 130.33 352.8 130.713 352.902L132.265 353.245C132.668 353.347 133.071 353.427 133.515 353.508C134.704 353.71 135.611 353.872 136.579 353.994C137.587 354.115 138.615 354.216 139.704 354.277C141.115 354.378 142.365 354.398 143.594 354.398C144.844 354.398 145.913 354.358 146.961 354.297L147.989 354.216C148.715 354.155 149.461 354.095 150.146 354.014L150.852 353.913C151.88 353.771 152.505 353.67 153.11 353.549L153.876 353.387C154.702 353.205 155.287 353.084 155.831 352.942L156.738 352.699C157.283 352.558 157.827 352.396 158.351 352.234L159.097 351.992C159.641 351.81 160.165 351.628 160.649 351.425L162.806 355.086L161.234 351.183C161.778 350.96 162.282 350.738 162.786 350.515L164.943 354.135L163.169 350.333C163.754 350.05 164.338 349.767 164.862 349.484C165.991 348.857 166.979 348.271 167.806 347.684C168.209 347.401 168.552 347.158 168.874 346.896L170.406 345.622L173.551 348.433L170.89 345.156C175.043 339.514 181.897 336.036 189.074 336.036C201.613 336.036 211.813 346.269 211.813 358.847C211.813 362.568 210.886 366.248 209.152 369.525L209.414 369.727L206.894 373.043C206.35 373.751 204.818 375.652 202.197 378.159C194.214 385.824 176.474 398.827 147.243 399.878C145.993 399.919 144.744 399.939 143.453 399.939L143.534 400ZM97.5305 344.469C89.6079 344.469 83.1569 350.94 83.1569 358.887C83.1569 362.346 84.4068 365.702 86.705 368.331C88.7007 370.859 106.058 391.607 143.534 391.607C144.723 391.607 145.893 391.587 147.022 391.547C173.47 390.596 189.356 378.989 196.472 372.153C197.783 370.9 198.77 369.828 199.415 369.08L200.343 367.886C202.399 365.298 203.488 362.184 203.488 358.887C203.488 350.94 197.037 344.469 189.114 344.469C184.498 344.469 180.284 346.612 177.543 350.374L175.124 352.699C174.861 352.922 174.559 353.164 174.216 353.427C173.531 353.953 173.067 354.297 172.563 354.641C171.495 355.389 170.265 356.157 168.854 356.906C168.169 357.27 167.463 357.634 166.737 357.977L166.274 358.18C165.669 358.463 165.024 358.746 164.358 359.009L163.895 359.191C163.048 359.514 162.423 359.737 161.778 359.959L160.871 360.263C160.246 360.465 159.581 360.647 158.936 360.829L157.867 361.112C157.202 361.274 156.517 361.436 155.811 361.577L154.622 361.82C153.896 361.961 153.17 362.062 152.404 362.184L151.134 362.366C150.328 362.467 149.481 362.527 148.634 362.608L147.445 362.71C146.195 362.79 144.885 362.831 143.514 362.831C141.982 362.831 140.651 362.79 139.381 362.71C137.889 362.608 136.68 362.487 135.531 362.346C134.422 362.204 133.353 362.042 132.305 361.84C131.398 361.678 130.874 361.557 130.35 361.436L128.636 361.051C128.112 360.93 127.648 360.788 127.165 360.647L125.572 360.182C125.169 360.06 124.786 359.919 124.403 359.777L119.585 357.796L120.855 353.751L119.04 357.533C118.698 357.371 118.355 357.209 118.053 357.047C117.73 356.865 117.408 356.683 117.085 356.501L118.657 352.558L116.642 356.238L112.569 353.549L111.823 354.196L109.142 350.495C106.179 346.572 102.006 344.469 97.4701 344.469H97.5305ZM115.996 350.637L115.916 350.778L116.057 350.576L115.996 350.637Z" fill="#EAEAEA"/>
</svg>
