<svg width="298" height="120" viewBox="0 0 298 120" fill="none" xmlns="http://www.w3.org/2000/svg">
<path d="M100.439 106.975V50.9667C100.439 47.2477 103.424 44.2265 107.113 44.2265H109.852C113.535 44.2265 116.527 47.2417 116.527 50.9667C116.527 51.7735 117.17 52.4227 117.969 52.4227C118.557 52.4227 119.068 52.0465 119.302 51.5005C120.371 49.001 122.005 47.1507 124.21 45.9555C126.679 44.6148 129.617 43.9414 133.035 43.9414H134.315C138.322 43.9414 141.572 47.2235 141.572 51.27C141.572 55.3165 138.322 58.5986 134.315 58.5986H132.747C128.001 58.5986 124.156 59.8726 121.219 62.4085C118.275 64.9505 116.809 68.8514 116.809 74.1234V106.969C116.809 111.531 113.144 115.232 108.627 115.232C104.109 115.232 100.445 111.531 100.445 106.969L100.439 106.975Z" fill="#EAEAEA"/>
<path d="M182.855 117.252C175.832 117.252 169.639 115.741 164.28 112.726C158.915 109.705 154.746 105.446 151.755 99.9311C148.763 94.4225 147.273 87.9796 147.273 80.5964V78.8734C147.273 71.3992 148.745 64.9321 151.688 59.466C154.626 54.0059 158.753 49.7653 164.07 46.7441C169.38 43.7228 175.502 42.2183 182.429 42.2183C189.355 42.2183 195.236 43.7289 200.361 46.7441C205.485 49.7653 209.468 54.0059 212.316 59.466C215.163 64.926 216.587 71.3022 216.587 78.5823C216.587 81.8401 213.974 84.4731 210.754 84.4731H165.331C164.466 84.4731 163.805 85.2375 163.896 86.105C164.382 90.9099 166.293 94.8229 169.621 97.8381C173.321 101.193 177.875 102.867 183.282 102.867C188.688 102.867 192.533 101.696 195.098 99.3487C196.12 98.4083 197.045 97.4194 197.874 96.382C200.054 93.6459 203.881 92.9058 206.975 94.5135C211.21 96.7218 212.334 102.327 209.264 106.004C209.078 106.228 208.885 106.453 208.693 106.677C206.176 109.601 202.83 112.095 198.661 114.152C194.486 116.214 189.217 117.239 182.861 117.239L182.855 117.252ZM165.698 71.9756H198.3C199.201 71.9756 199.874 71.1505 199.724 70.2526C199.087 66.3578 197.375 63.197 194.594 60.7643C191.416 57.9857 187.307 56.5964 182.278 56.5964C177.25 56.5964 172.883 57.9857 169.753 60.7643C167.037 63.1728 165.217 66.3032 164.28 70.1556C164.058 71.0777 164.743 71.9756 165.686 71.9756H165.698Z" fill="#EAEAEA"/>
<path d="M230.536 106.975V52.3499C230.536 47.8666 234.135 44.2266 238.58 44.2266C243.02 44.2266 246.624 47.8606 246.624 52.3499V52.6897C246.624 53.4966 247.267 54.1457 248.066 54.1457H248.162C248.703 54.1457 249.178 53.8363 249.436 53.357C250.721 50.9667 252.824 48.6917 255.732 46.5319C258.958 44.1356 263.848 42.9404 270.39 42.9404C275.797 42.9404 280.591 44.1841 284.766 46.6775C288.941 49.171 292.191 52.6229 294.516 57.0274C296.841 61.4379 298 66.6614 298 72.6978V106.981C298 111.543 294.336 115.244 289.818 115.244C285.3 115.244 281.636 111.543 281.636 106.981V73.99C281.636 68.2387 280.236 63.9556 277.437 61.1224C274.637 58.2953 270.678 56.8818 265.554 56.8818C259.763 56.8818 255.209 58.8232 251.887 62.7059C248.565 66.5886 246.907 72.1214 246.907 79.3105V106.981C246.907 111.543 243.242 115.244 238.725 115.244C234.207 115.244 230.542 111.543 230.542 106.981L230.536 106.975Z" fill="#EAEAEA"/>
<path d="M8.44053 64.1741C9.31161 64.6473 10.2428 64.8718 11.1679 64.8718C13.2164 64.8718 15.1929 63.7676 16.2322 61.8202C21.4467 52.0709 31.4911 46.0163 42.4487 46.0163C52.4572 46.0163 61.7387 51.0517 67.2836 59.4905C69.0378 62.166 72.6122 62.894 75.2555 61.1225C77.9048 59.351 78.6257 55.7413 76.8715 53.0719C69.194 41.3813 56.326 34.4046 42.4487 34.4046C33.1672 34.4046 24.3603 37.5411 17.2655 43.0618V7.4258C17.2655 4.02236 14.5381 1.26807 11.1679 1.26807C7.79771 1.26807 5.07031 4.02236 5.07031 7.4258V58.3439C5.07031 59.527 5.40674 60.625 5.97744 61.5654C6.48207 62.6453 7.31712 63.5735 8.43451 64.1862L8.44053 64.1741Z" fill="#EAEAEA"/>
<path d="M11.1678 66.1335C10.0143 66.1335 8.86692 65.8423 7.84565 65.2841C6.55405 64.5804 5.52674 63.5005 4.88394 62.1598C4.19308 61.001 3.82666 59.6785 3.82666 58.3377V7.41961C3.82666 3.33063 7.11874 0 11.1738 0C15.2288 0 18.5209 3.33063 18.5209 7.41961V40.5865C25.5436 35.7695 33.9481 33.1365 42.4546 33.1365C56.7464 33.1365 70.0048 40.3256 77.9166 52.368C80.0493 55.6138 79.1662 60.0121 75.9522 62.1658C72.7322 64.3195 68.3828 63.4277 66.2502 60.182C60.9396 52.1011 52.0485 47.272 42.4606 47.272C31.9596 47.272 22.3356 53.0779 17.3374 62.4146C16.1119 64.7017 13.751 66.1274 11.1738 66.1274L11.1678 66.1335ZM9.03512 63.0637C9.70195 63.4277 10.4168 63.6097 11.1678 63.6097C12.8258 63.6097 14.3517 62.6936 15.1387 61.2194C20.5694 51.0637 31.0344 44.7543 42.4546 44.7543C52.8836 44.7543 62.5556 50.002 68.3288 58.7867C69.6985 60.8797 72.5039 61.4499 74.5765 60.0607C76.6491 58.6714 77.2138 55.8443 75.8381 53.7513C68.3948 42.4126 55.9113 35.6481 42.4606 35.6481C33.6717 35.6481 24.9969 38.6269 18.0403 44.0445L16.0338 45.6037V7.40748C16.0338 4.70778 13.8591 2.51162 11.1858 2.51162C8.51248 2.51162 6.33777 4.70778 6.33777 7.40748V58.3256C6.33777 59.2235 6.59006 60.1092 7.05864 60.8858L7.12475 61.0071C7.53926 61.8867 8.20009 62.5966 9.04714 63.0576L9.03512 63.0637Z" fill="#EAEAEA"/>
<path d="M12.1711 71.854C6.13958 71.854 1.24951 76.7923 1.24951 82.8833C1.24951 88.9743 6.13958 93.9127 12.1711 93.9127C18.2026 93.9127 23.0926 88.9743 23.0926 82.8833C23.0926 76.7923 18.2026 71.854 12.1711 71.854Z" fill="#EAEAEA"/>
<path d="M12.1711 95.1747C5.46079 95.1747 0 89.66 0 82.8835C0 76.1069 5.46079 70.5923 12.1711 70.5923C18.8815 70.5923 24.3422 76.1069 24.3422 82.8835C24.3422 89.66 18.8815 95.1747 12.1711 95.1747ZM12.1711 73.116C6.8365 73.116 2.49912 77.4962 2.49912 82.8835C2.49912 88.2707 6.8365 92.6509 12.1711 92.6509C17.5057 92.6509 21.8432 88.2707 21.8432 82.8835C21.8432 77.4962 17.5057 73.116 12.1711 73.116Z" fill="#EAEAEA"/>
<path d="M73.0207 71.854C66.9892 71.854 62.0991 76.7923 62.0991 82.8833C62.0991 88.9743 66.9892 93.9127 73.0207 93.9127C79.0522 93.9127 83.9422 88.9743 83.9422 82.8833C83.9422 76.7923 79.0522 71.854 73.0207 71.854Z" fill="#EAEAEA"/>
<path d="M73.0207 95.1747C66.3104 95.1747 60.8496 89.66 60.8496 82.8835C60.8496 76.1069 66.3104 70.5923 73.0207 70.5923C79.7311 70.5923 85.1919 76.1069 85.1919 82.8835C85.1919 89.66 79.7311 95.1747 73.0207 95.1747ZM73.0207 73.116C67.6861 73.116 63.3487 77.4962 63.3487 82.8835C63.3487 88.2707 67.6861 92.6509 73.0207 92.6509C78.3554 92.6509 82.6927 88.2707 82.6927 82.8835C82.6927 77.4962 78.3554 73.116 73.0207 73.116Z" fill="#EAEAEA"/>
<path d="M56.3679 102.085C54.5356 102.085 52.9196 102.989 51.9164 104.372C51.9164 104.372 51.8503 104.439 51.8142 104.475C51.7902 104.5 51.7662 104.524 51.7422 104.548C51.7121 104.579 51.6761 104.609 51.646 104.639C51.604 104.682 51.5559 104.724 51.5019 104.767C51.4718 104.791 51.4418 104.821 51.4057 104.846C51.3336 104.906 51.2616 104.967 51.1774 105.028C51.1534 105.046 51.1294 105.064 51.0994 105.088C50.9913 105.173 50.8711 105.264 50.7389 105.355C50.7389 105.355 50.7389 105.355 50.7329 105.355C50.4506 105.549 50.1262 105.756 49.7477 105.962H49.7417C49.5675 106.059 49.3752 106.156 49.177 106.247C49.1349 106.265 49.0929 106.283 49.0508 106.302C48.8886 106.38 48.7144 106.453 48.5342 106.526C48.4741 106.55 48.408 106.575 48.3419 106.599C48.1737 106.666 48.0055 106.726 47.8253 106.787C47.7412 106.817 47.6631 106.841 47.579 106.866C47.4048 106.92 47.2306 106.975 47.0503 107.024C46.9542 107.048 46.8581 107.078 46.756 107.102C46.5757 107.151 46.3895 107.187 46.1973 107.23C46.0891 107.254 45.981 107.278 45.8669 107.297C45.6686 107.333 45.4644 107.363 45.2601 107.394C45.146 107.412 45.0318 107.43 44.9117 107.442C44.6894 107.472 44.4491 107.491 44.2148 107.509C44.1067 107.515 43.9986 107.533 43.8844 107.539C43.53 107.563 43.1635 107.576 42.785 107.576C42.767 107.576 42.755 107.576 42.737 107.576C42.3585 107.576 41.9861 107.563 41.6316 107.539C41.6076 107.539 41.5836 107.539 41.5595 107.533C41.2171 107.509 40.8807 107.479 40.5563 107.442C40.2499 107.406 39.9555 107.357 39.6672 107.303C39.6371 107.303 39.6011 107.29 39.5651 107.284C39.3728 107.248 39.1926 107.205 39.0064 107.163C38.8922 107.139 38.7661 107.114 38.6519 107.084C38.4717 107.042 38.3095 106.987 38.1413 106.939C38.0332 106.908 37.925 106.878 37.8229 106.848C37.6727 106.799 37.5345 106.744 37.3904 106.696C37.2822 106.659 37.1681 106.623 37.0659 106.581C36.9578 106.538 36.8677 106.496 36.7656 106.453C36.6394 106.399 36.5072 106.344 36.3871 106.289C36.297 106.247 36.2129 106.205 36.1288 106.162C36.0146 106.107 35.8885 106.047 35.7804 105.992C35.6662 105.931 35.5701 105.871 35.462 105.81C35.3899 105.768 35.3118 105.731 35.2457 105.689C35.1376 105.628 35.0475 105.561 34.9513 105.501C34.8973 105.464 34.8372 105.428 34.7831 105.398C34.699 105.337 34.6209 105.282 34.5428 105.228C34.4947 105.191 34.4407 105.155 34.3926 105.125C34.3025 105.058 34.2244 104.991 34.1463 104.93C34.1223 104.912 34.0983 104.894 34.0742 104.876C33.9841 104.803 33.912 104.736 33.8399 104.676C33.8399 104.676 33.8279 104.664 33.8219 104.657C33.6057 104.463 33.4855 104.33 33.4675 104.306C32.4582 102.959 30.8603 102.079 29.058 102.079C26.0062 102.079 23.5251 104.579 23.5251 107.667C23.5251 109.068 24.0418 110.348 24.8828 111.325C25.4776 112.083 31.0285 118.738 42.761 118.738C43.1275 118.738 43.4879 118.732 43.8484 118.72C52.1867 118.417 57.2029 114.686 59.4077 112.556C60.1226 111.865 60.5431 111.343 60.6812 111.161H60.6752C61.4322 110.196 61.8888 108.989 61.8888 107.667C61.8888 104.585 59.4137 102.079 56.3559 102.079L56.3679 102.085ZM33.4795 104.312C33.4795 104.312 33.4855 104.324 33.4915 104.33C33.5335 104.384 33.5576 104.415 33.5576 104.415C33.5336 104.384 33.5035 104.348 33.4795 104.312Z" fill="#EAEAEA"/>
<path d="M42.773 120C30.4457 120 24.5464 112.92 23.9156 112.107C22.8763 110.9 22.2876 109.311 22.2876 107.666C22.2876 103.893 25.3274 100.823 29.064 100.823C31.1846 100.823 33.1431 101.8 34.4407 103.511L34.4587 103.529C34.4587 103.529 34.5428 103.608 34.6629 103.723L35.1435 104.117L35.0414 104.312L35.1255 104.427L35.2817 104.208L35.486 104.354L34.9573 105.507L35.6302 104.445L38.6219 105.774C38.73 105.804 38.8381 105.84 38.9523 105.871L39.4149 105.974C39.535 106.004 39.6552 106.028 39.7873 106.053C40.1418 106.113 40.4121 106.162 40.7004 106.198C41.0008 106.235 41.3072 106.265 41.6316 106.283C42.0521 106.314 42.4246 106.32 42.7911 106.32C43.1635 106.32 43.4819 106.307 43.7943 106.289L44.1007 106.265C44.3169 106.247 44.5392 106.229 44.7435 106.204L44.9537 106.174C45.2601 106.132 45.4463 106.101 45.6266 106.065L45.8548 106.016C46.1012 105.962 46.2754 105.925 46.4376 105.883L46.7079 105.81C46.8701 105.768 47.0323 105.719 47.1885 105.67L47.4108 105.598C47.573 105.543 47.7292 105.488 47.8733 105.428L48.5161 106.526L48.0476 105.355C48.2098 105.288 48.3599 105.222 48.5101 105.155L49.1529 106.241L48.6243 105.1C48.7985 105.015 48.9727 104.93 49.1289 104.845C49.4653 104.657 49.7597 104.481 50.006 104.305C50.1262 104.221 50.2283 104.148 50.3244 104.069L50.781 103.687L51.7181 104.53L50.9251 103.547C52.1627 101.855 54.2052 100.811 56.3439 100.811C60.0805 100.811 63.1203 103.881 63.1203 107.654C63.1203 108.771 62.8439 109.875 62.3273 110.858L62.4054 110.918L61.6545 111.913C61.4923 112.125 61.0357 112.696 60.2547 113.448C57.8758 115.747 52.5892 119.648 43.8784 119.964C43.5059 119.976 43.1335 119.982 42.749 119.982L42.773 120ZM29.064 103.341C26.7031 103.341 24.7807 105.282 24.7807 107.666C24.7807 108.704 25.1531 109.711 25.838 110.5C26.4327 111.258 31.6052 117.482 42.773 117.482C43.1275 117.482 43.4759 117.476 43.8123 117.464C51.6941 117.179 56.428 113.697 58.5486 111.646C58.9391 111.27 59.2335 110.949 59.4257 110.724L59.702 110.366C60.3148 109.59 60.6392 108.655 60.6392 107.666C60.6392 105.282 58.7168 103.341 56.3559 103.341C54.9802 103.341 53.7246 103.984 52.9076 105.112L52.1867 105.81C52.1086 105.877 52.0185 105.95 51.9164 106.028C51.7121 106.186 51.574 106.289 51.4238 106.392C51.1054 106.617 50.7389 106.847 50.3184 107.072C50.1141 107.181 49.9039 107.29 49.6876 107.393L49.5494 107.454C49.3692 107.539 49.177 107.624 48.9787 107.703L48.8406 107.757C48.5883 107.854 48.402 107.921 48.2098 107.988L47.9395 108.079C47.7532 108.14 47.555 108.194 47.3627 108.249L47.0443 108.334C46.8461 108.382 46.6418 108.431 46.4316 108.473L46.0771 108.546C45.8609 108.589 45.6446 108.619 45.4163 108.655L45.0378 108.71C44.7975 108.74 44.5452 108.758 44.2929 108.783L43.9385 108.813C43.566 108.837 43.1755 108.849 42.767 108.849C42.3104 108.849 41.914 108.837 41.5355 108.813C41.0909 108.783 40.7305 108.746 40.3881 108.704C40.0577 108.661 39.7392 108.613 39.4269 108.552C39.1565 108.504 39.0003 108.467 38.8442 108.431L38.3335 108.316C38.1773 108.279 38.0391 108.237 37.895 108.194L37.4204 108.055C37.3002 108.018 37.1861 107.976 37.0719 107.933L35.6362 107.339L36.0146 106.126L35.474 107.26C35.3719 107.211 35.2697 107.163 35.1796 107.114C35.0835 107.06 34.9874 107.005 34.8912 106.951L35.3598 105.768L34.7591 106.872L33.5456 106.065L33.3233 106.259L32.5243 105.149C31.6412 103.972 30.3977 103.341 29.046 103.341H29.064ZM34.5668 105.191L34.5428 105.234L34.5848 105.173L34.5668 105.191Z" fill="#EAEAEA"/>
</svg>
