<svg width="100" height="40" viewBox="0 0 100 40" fill="none" xmlns="http://www.w3.org/2000/svg">
<path d="M33.7043 35.6581V16.9887C33.7043 15.7491 34.7063 14.742 35.944 14.742H36.8633C38.0991 14.742 39.103 15.7471 39.103 16.9887C39.103 17.2577 39.3187 17.4741 39.5868 17.4741C39.7844 17.4741 39.9557 17.3487 40.0344 17.1667C40.3932 16.3335 40.9415 15.7167 41.6814 15.3183C42.5099 14.8714 43.4957 14.647 44.6428 14.647H45.0722C46.4168 14.647 47.5074 15.741 47.5074 17.0898C47.5074 18.4387 46.4168 19.5327 45.0722 19.5327H44.546C42.9534 19.5327 41.6632 19.9574 40.6774 20.8027C39.6896 21.65 39.1977 22.9503 39.1977 24.7076V35.6561C39.1977 37.1768 37.968 38.4104 36.4521 38.4104C34.9361 38.4104 33.7064 37.1768 33.7064 35.6561L33.7043 35.6581Z" fill="#2B0035"/>
<path d="M61.3607 39.0839C59.0041 39.0839 56.9257 38.5803 55.1275 37.5753C53.3273 36.5682 51.9282 35.1486 50.9243 33.3104C49.9204 31.4742 49.4204 29.3265 49.4204 26.8655V26.2912C49.4204 23.7997 49.9143 21.644 50.9021 19.822C51.8879 18.002 53.2728 16.5884 55.0569 15.5814C56.839 14.5743 58.8932 14.0728 61.2176 14.0728C63.542 14.0728 65.5156 14.5763 67.2351 15.5814C68.9547 16.5884 70.2913 18.002 71.2468 19.822C72.2024 21.642 72.6802 23.7674 72.6802 26.1941C72.6802 27.28 71.8032 28.1577 70.7227 28.1577H55.4803C55.19 28.1577 54.9682 28.4125 54.9985 28.7017C55.1618 30.3033 55.8028 31.6076 56.9197 32.6127C58.1615 33.731 59.6895 34.2891 61.5039 34.2891C63.3182 34.2891 64.6084 33.8988 65.4692 33.1162C65.8119 32.8028 66.1224 32.4732 66.4005 32.1273C67.1323 31.2153 68.4165 30.9686 69.4547 31.5045C70.8759 32.2406 71.2529 34.1092 70.2228 35.3346C70.1603 35.4095 70.0957 35.4843 70.0312 35.5591C69.1866 36.5338 68.0637 37.365 66.6646 38.0505C65.2636 38.7381 63.4956 39.0798 61.3628 39.0798L61.3607 39.0839ZM55.6033 23.9919H66.5437C66.8461 23.9919 67.0719 23.7168 67.0215 23.4176C66.8078 22.1193 66.2332 21.0657 65.2999 20.2548C64.2334 19.3286 62.8545 18.8655 61.1672 18.8655C59.4799 18.8655 58.0143 19.3286 56.964 20.2548C56.0528 21.0576 55.442 22.1011 55.1275 23.3852C55.0529 23.6926 55.2827 23.9919 55.5992 23.9919H55.6033Z" fill="#2B0035"/>
<path d="M77.3613 35.6583V17.45C77.3613 15.9555 78.5689 14.7422 80.0607 14.7422C81.5504 14.7422 82.76 15.9535 82.76 17.45V17.5632C82.76 17.8322 82.9757 18.0486 83.2438 18.0486H83.2761C83.4575 18.0486 83.6168 17.9454 83.7034 17.7857C84.1349 16.9889 84.8404 16.2306 85.8161 15.5106C86.8987 14.7119 88.5397 14.3135 90.735 14.3135C92.5493 14.3135 94.158 14.728 95.5591 15.5592C96.9602 16.3903 98.0508 17.541 98.8309 19.0091C99.6111 20.4793 100 22.2204 100 24.2326V35.6603C100 37.181 98.7705 38.4146 97.2545 38.4146C95.7385 38.4146 94.5088 37.181 94.5088 35.6603V24.6633C94.5088 22.7462 94.0391 21.3185 93.0997 20.3741C92.1603 19.4318 90.8318 18.9606 89.1122 18.9606C87.1688 18.9606 85.6407 19.6077 84.5259 20.902C83.4111 22.1962 82.8547 24.0405 82.8547 26.4368V35.6603C82.8547 37.181 81.625 38.4146 80.109 38.4146C78.5931 38.4146 77.3633 37.181 77.3633 35.6603L77.3613 35.6583Z" fill="#2B0035"/>
<path d="M2.83236 21.3913C3.12467 21.549 3.43713 21.6238 3.74759 21.6238C4.43502 21.6238 5.09825 21.2558 5.44701 20.6066C7.19683 17.3569 10.5675 15.3387 14.2445 15.3387C17.603 15.3387 20.7176 17.0171 22.5783 19.8301C23.167 20.7219 24.3665 20.9646 25.2535 20.3741C26.1425 19.7836 26.3844 18.5803 25.7958 17.6906C23.2194 13.7937 18.9013 11.4681 14.2445 11.4681C11.1299 11.4681 8.17456 12.5136 5.79375 14.3539V2.47518C5.79375 1.34071 4.87852 0.422607 3.74759 0.422607C2.61665 0.422607 1.70142 1.34071 1.70142 2.47518V19.4479C1.70142 19.8422 1.81431 20.2083 2.00582 20.5217C2.17516 20.8817 2.45538 21.1911 2.83034 21.3953L2.83236 21.3913Z" fill="#2B0035"/>
<path d="M3.74764 22.0445C3.36058 22.0445 2.97554 21.9474 2.63283 21.7614C2.19941 21.5268 1.85468 21.1668 1.63897 20.7199C1.40714 20.3337 1.28418 19.8928 1.28418 19.4459V2.4732C1.28418 1.11021 2.3889 0 3.74965 0C5.1104 0 6.21513 1.11021 6.21513 2.4732V13.5288C8.57174 11.9232 11.392 11.0455 14.2466 11.0455C19.0425 11.0455 23.4916 13.4419 26.1466 17.456C26.8622 18.5379 26.5659 20.004 25.4874 20.7219C24.4068 21.4398 22.9473 21.1426 22.2317 20.0607C20.4496 17.367 17.466 15.7573 14.2486 15.7573C10.7248 15.7573 7.49524 17.6926 5.81799 20.8048C5.40675 21.5672 4.61449 22.0425 3.74965 22.0425L3.74764 22.0445ZM3.03198 21.0212C3.25575 21.1426 3.49564 21.2032 3.74764 21.2032C4.30403 21.2032 4.81607 20.8979 5.08016 20.4065C6.90256 17.0212 10.4143 14.9181 14.2466 14.9181C17.7462 14.9181 20.9919 16.6673 22.9292 19.5955C23.3888 20.2932 24.3302 20.4833 25.0257 20.0202C25.7212 19.5571 25.9107 18.6148 25.4491 17.9171C22.9513 14.1375 18.7623 11.8827 14.2486 11.8827C11.2993 11.8827 8.3883 12.8756 6.05385 14.6815L5.38053 15.2012V2.46916C5.38053 1.56926 4.65078 0.837206 3.75369 0.837206C2.8566 0.837206 2.12684 1.56926 2.12684 2.46916V19.4419C2.12684 19.7411 2.21149 20.0364 2.36874 20.2952L2.39092 20.3357C2.53002 20.6289 2.75177 20.8655 3.03602 21.0192L3.03198 21.0212Z" fill="#2B0035"/>
<path d="M4.08414 23.9514C2.06015 23.9514 0.419189 25.5975 0.419189 27.6279C0.419189 29.6582 2.06015 31.3043 4.08414 31.3043C6.10813 31.3043 7.74909 29.6582 7.74909 27.6279C7.74909 25.5975 6.10813 23.9514 4.08414 23.9514Z" fill="#2B0035"/>
<path d="M4.08427 31.7249C1.83248 31.7249 0 29.8867 0 27.6278C0 25.369 1.83248 23.5308 4.08427 23.5308C6.33606 23.5308 8.16853 25.369 8.16853 27.6278C8.16853 29.8867 6.33606 31.7249 4.08427 31.7249ZM4.08427 24.372C2.29413 24.372 0.838632 25.8321 0.838632 27.6278C0.838632 29.4236 2.29413 30.8836 4.08427 30.8836C5.87441 30.8836 7.32991 29.4236 7.32991 27.6278C7.32991 25.8321 5.87441 24.372 4.08427 24.372Z" fill="#2B0035"/>
<path d="M24.5036 23.9514C22.4796 23.9514 20.8386 25.5975 20.8386 27.6279C20.8386 29.6582 22.4796 31.3043 24.5036 31.3043C26.5276 31.3043 28.1685 29.6582 28.1685 27.6279C28.1685 25.5975 26.5276 23.9514 24.5036 23.9514Z" fill="#2B0035"/>
<path d="M24.5037 31.7249C22.2519 31.7249 20.4194 29.8867 20.4194 27.6278C20.4194 25.369 22.2519 23.5308 24.5037 23.5308C26.7555 23.5308 28.588 25.369 28.588 27.6278C28.588 29.8867 26.7555 31.7249 24.5037 31.7249ZM24.5037 24.372C22.7136 24.372 21.2581 25.8321 21.2581 27.6278C21.2581 29.4236 22.7136 30.8836 24.5037 30.8836C26.2938 30.8836 27.7493 29.4236 27.7493 27.6278C27.7493 25.8321 26.2938 24.372 24.5037 24.372Z" fill="#2B0035"/>
<path d="M18.9153 34.0281C18.3005 34.0281 17.7582 34.3295 17.4216 34.7905C17.4216 34.7905 17.3994 34.8128 17.3873 34.8249C17.3792 34.833 17.3711 34.8411 17.3631 34.8492C17.353 34.8593 17.3409 34.8694 17.3308 34.8795C17.3167 34.8937 17.3006 34.9078 17.2825 34.922C17.2724 34.9301 17.2623 34.9402 17.2502 34.9483C17.226 34.9685 17.2018 34.9887 17.1736 35.0089C17.1655 35.015 17.1575 35.0211 17.1474 35.0292C17.1111 35.0575 17.0708 35.0878 17.0264 35.1181C17.0264 35.1181 17.0264 35.1181 17.0244 35.1181C16.9297 35.1829 16.8208 35.2516 16.6938 35.3204H16.6918C16.6333 35.3527 16.5688 35.3851 16.5023 35.4154C16.4882 35.4215 16.4741 35.4275 16.46 35.4336C16.4055 35.4599 16.3471 35.4842 16.2866 35.5084C16.2664 35.5165 16.2443 35.5246 16.2221 35.5327C16.1656 35.5549 16.1092 35.5752 16.0487 35.5954C16.0205 35.6055 15.9943 35.6136 15.966 35.6217C15.9076 35.6399 15.8491 35.6581 15.7886 35.6743C15.7564 35.6823 15.7241 35.6925 15.6899 35.7005C15.6294 35.7167 15.5669 35.7289 15.5024 35.743C15.4661 35.7511 15.4298 35.7592 15.3915 35.7653C15.325 35.7774 15.2564 35.7875 15.1879 35.7976C15.1496 35.8037 15.1113 35.8097 15.071 35.8138C14.9964 35.8239 14.9158 35.83 14.8371 35.836C14.8008 35.8381 14.7646 35.8441 14.7263 35.8461C14.6073 35.8542 14.4843 35.8583 14.3573 35.8583C14.3513 35.8583 14.3473 35.8583 14.3412 35.8583C14.2142 35.8583 14.0892 35.8542 13.9703 35.8461C13.9622 35.8461 13.9542 35.8461 13.9461 35.8441C13.8312 35.836 13.7183 35.8259 13.6094 35.8138C13.5066 35.8017 13.4078 35.7855 13.3111 35.7673C13.301 35.7673 13.2889 35.7632 13.2768 35.7612C13.2123 35.7491 13.1518 35.7349 13.0893 35.7208C13.051 35.7127 13.0087 35.7046 12.9704 35.6945C12.9099 35.6803 12.8555 35.6621 12.799 35.6459C12.7628 35.6358 12.7265 35.6257 12.6922 35.6156C12.6418 35.5994 12.5954 35.5812 12.547 35.565C12.5108 35.5529 12.4724 35.5408 12.4382 35.5266C12.4019 35.5125 12.3717 35.4983 12.3374 35.4842C12.295 35.466 12.2507 35.4478 12.2104 35.4296C12.1801 35.4154 12.1519 35.4013 12.1237 35.3871C12.0854 35.3689 12.0431 35.3487 12.0068 35.3305C11.9685 35.3103 11.9362 35.29 11.8999 35.2698C11.8757 35.2557 11.8495 35.2435 11.8274 35.2294C11.7911 35.2091 11.7608 35.1869 11.7286 35.1667C11.7104 35.1545 11.6903 35.1424 11.6721 35.1323C11.6439 35.1121 11.6177 35.0939 11.5915 35.0757C11.5754 35.0635 11.5572 35.0514 11.5411 35.0413C11.5109 35.019 11.4846 34.9968 11.4584 34.9766C11.4504 34.9705 11.4423 34.9644 11.4343 34.9584C11.404 34.9341 11.3798 34.9119 11.3556 34.8916C11.3556 34.8916 11.3516 34.8876 11.3496 34.8856C11.277 34.8209 11.2367 34.7764 11.2306 34.7683C10.892 34.3194 10.3557 34.0261 9.75096 34.0261C8.72687 34.0261 7.89429 34.8593 7.89429 35.8886C7.89429 36.3558 8.06766 36.7824 8.34989 37.108C8.54946 37.3608 10.4122 39.5792 14.3493 39.5792C14.4723 39.5792 14.5932 39.5772 14.7142 39.5731C17.5123 39.472 19.1956 38.2284 19.9354 37.5185C20.1753 37.288 20.3164 37.1141 20.3628 37.0534H20.3608C20.6148 36.7319 20.768 36.3295 20.768 35.8886C20.768 34.8613 19.9374 34.0261 18.9113 34.0261L18.9153 34.0281ZM11.2347 34.7703C11.2347 34.7703 11.2367 34.7744 11.2387 34.7764C11.2528 34.7946 11.2609 34.8047 11.2609 34.8047C11.2528 34.7946 11.2427 34.7824 11.2347 34.7703Z" fill="#2B0035"/>
<path d="M14.3533 39.9999C10.2166 39.9999 8.237 37.6399 8.02532 37.3689C7.67657 36.9665 7.479 36.4367 7.479 35.8886C7.479 34.6308 8.49906 33.6076 9.75296 33.6076C10.4646 33.6076 11.1218 33.9331 11.5572 34.5034L11.5633 34.5095C11.5633 34.5095 11.5915 34.5358 11.6318 34.5742L11.7931 34.7056L11.7588 34.7703L11.787 34.8088L11.8395 34.736L11.908 34.7845L11.7306 35.1687L11.9564 34.8148L12.9603 35.2577C12.9966 35.2678 13.0329 35.2799 13.0712 35.2901L13.2264 35.3244C13.2667 35.3346 13.307 35.3426 13.3514 35.3507C13.4703 35.3709 13.561 35.3871 13.6578 35.3993C13.7586 35.4114 13.8614 35.4215 13.9703 35.4276C14.1114 35.4377 14.2364 35.4397 14.3594 35.4397C14.4843 35.4397 14.5912 35.4357 14.696 35.4296L14.7988 35.4215C14.8714 35.4154 14.946 35.4094 15.0145 35.4013L15.0851 35.3912C15.1879 35.377 15.2504 35.3669 15.3109 35.3548L15.3875 35.3386C15.4701 35.3204 15.5286 35.3083 15.583 35.2941L15.6737 35.2698C15.7282 35.2557 15.7826 35.2395 15.835 35.2233L15.9096 35.1991C15.964 35.1809 16.0164 35.1627 16.0648 35.1424L16.2805 35.5085L16.1233 35.1182C16.1777 35.0959 16.2281 35.0737 16.2785 35.0514L16.4942 35.4134L16.3168 35.0332C16.3753 35.0049 16.4337 34.9766 16.4862 34.9483C16.5991 34.8856 16.6978 34.827 16.7805 34.7683C16.8208 34.74 16.8551 34.7157 16.8873 34.6895L17.0405 34.5621L17.355 34.8432L17.0889 34.5155C17.5042 33.9513 18.1896 33.6035 18.9073 33.6035C20.1612 33.6035 21.1812 34.6268 21.1812 35.8846C21.1812 36.2567 21.0885 36.6247 20.9151 36.9524L20.9413 36.9726L20.6894 37.3042C20.6349 37.375 20.4817 37.5651 20.2197 37.8158C19.4213 38.5823 17.6473 39.8826 14.7242 39.9877C14.5993 39.9918 14.4743 39.9938 14.3452 39.9938L14.3533 39.9999ZM9.75296 34.4468C8.9607 34.4468 8.31561 35.0939 8.31561 35.8886C8.31561 36.2345 8.4406 36.5701 8.67041 36.833C8.86999 37.0858 10.6057 39.1606 14.3533 39.1606C14.4722 39.1606 14.5892 39.1586 14.7021 39.1546C17.347 39.0595 18.9355 37.8988 19.6471 37.2152C19.7782 37.0899 19.8769 36.9827 19.9415 36.9079L20.0342 36.7886C20.2398 36.5297 20.3487 36.2183 20.3487 35.8886C20.3487 35.0939 19.7036 34.4468 18.9113 34.4468C18.4497 34.4468 18.0283 34.6611 17.7542 35.0373L17.5123 35.2698C17.4861 35.2921 17.4558 35.3164 17.4216 35.3426C17.353 35.3952 17.3066 35.4296 17.2562 35.464C17.1494 35.5388 17.0264 35.6157 16.8853 35.6905C16.8168 35.7269 16.7462 35.7633 16.6736 35.7976L16.6273 35.8179C16.5668 35.8462 16.5023 35.8745 16.4358 35.9008L16.3894 35.919C16.3047 35.9513 16.2422 35.9736 16.1777 35.9958L16.087 36.0262C16.0245 36.0464 15.958 36.0646 15.8935 36.0828L15.7866 36.1111C15.7201 36.1273 15.6516 36.1435 15.581 36.1576L15.4621 36.1819C15.3895 36.196 15.3169 36.2061 15.2403 36.2183L15.1133 36.2365C15.0327 36.2466 14.948 36.2526 14.8633 36.2607L14.7444 36.2709C14.6194 36.2789 14.4884 36.283 14.3513 36.283C14.1981 36.283 14.065 36.2789 13.938 36.2709C13.7888 36.2607 13.6679 36.2486 13.553 36.2345C13.4421 36.2203 13.3353 36.2041 13.2304 36.1839C13.1397 36.1677 13.0873 36.1556 13.0349 36.1435L12.8635 36.105C12.8111 36.0929 12.7648 36.0787 12.7164 36.0646L12.5571 36.0181C12.5168 36.0059 12.4785 35.9918 12.4402 35.9776L11.9584 35.7795L12.0854 35.375L11.904 35.7532C11.8697 35.737 11.8354 35.7208 11.8052 35.7046C11.7729 35.6864 11.7407 35.6682 11.7084 35.65L11.8657 35.2557L11.6641 35.6237L11.2568 35.3548L11.1823 35.4195L10.9141 35.0494C10.6178 34.6571 10.2005 34.4468 9.74692 34.4468H9.75296ZM11.5996 35.0636L11.5915 35.0777L11.6056 35.0575L11.5996 35.0636Z" fill="#2B0035"/>
</svg>
