<svg width="68" height="69" viewBox="0 0 68 69" fill="none" xmlns="http://www.w3.org/2000/svg">
<path d="M26.6333 6.1665H10.2C9.26112 6.1665 8.5 6.92762 8.5 7.8665V18.6332C8.5 19.5721 9.26112 20.3332 10.2 20.3332H26.6333C27.5722 20.3332 28.3333 19.5721 28.3333 18.6332V7.8665C28.3333 6.92762 27.5722 6.1665 26.6333 6.1665Z" stroke="white" stroke-opacity="0.6" stroke-width="4"/>
<path d="M42.2166 48.6665H25.7833C24.8444 48.6665 24.0833 49.4276 24.0833 50.3665V61.1332C24.0833 62.0721 24.8444 62.8332 25.7833 62.8332H42.2166C43.1555 62.8332 43.9166 62.0721 43.9166 61.1332V50.3665C43.9166 49.4276 43.1555 48.6665 42.2166 48.6665Z" stroke="white" stroke-opacity="0.6" stroke-width="4"/>
<path d="M57.8 6.1665H41.3667C40.4278 6.1665 39.6667 6.92762 39.6667 7.8665V18.6332C39.6667 19.5721 40.4278 20.3332 41.3667 20.3332H57.8C58.7389 20.3332 59.5 19.5721 59.5 18.6332V7.8665C59.5 6.92762 58.7389 6.1665 57.8 6.1665Z" stroke="white" stroke-opacity="0.6" stroke-width="4"/>
<path d="M18.4167 20.333V30.2497C18.4167 31.7526 19.0137 33.1939 20.0764 34.2566C21.1391 35.3193 22.5805 35.9163 24.0834 35.9163H43.9167C45.4196 35.9163 46.8609 35.3193 47.9236 34.2566C48.9863 33.1939 49.5833 31.7526 49.5833 30.2497V20.333M34 35.9163V48.6663" stroke="white" stroke-opacity="0.6" stroke-width="4"/>
</svg>
