<svg width="22" height="22" viewBox="0 0 22 22" fill="none" xmlns="http://www.w3.org/2000/svg">
<rect width="22" height="22" rx="4" fill="#855DCD"/>
<path d="M6.40237 4H15.432V16.8402H14.1065V10.9586H14.0935C13.947 9.33303 12.5809 8.05917 10.9172 8.05917C9.25347 8.05917 7.8873 9.33303 7.74081 10.9586H7.72781V16.8402H6.40237V4Z" fill="white"/>
<path d="M4 5.82248L4.53846 7.64497H4.99408V15.0177C4.76533 15.0177 4.57988 15.2032 4.57988 15.432V15.929H4.49704C4.26828 15.929 4.08284 16.1144 4.08284 16.3432V16.8402H8.72189V16.3432C8.72189 16.1144 8.53645 15.929 8.30769 15.929H8.22485V15.432C8.22485 15.2032 8.03941 15.0177 7.81065 15.0177H7.31361V5.82248H4Z" fill="white"/>
<path d="M14.1893 15.0177C13.9606 15.0177 13.7751 15.2032 13.7751 15.432V15.929H13.6923C13.4636 15.929 13.2781 16.1144 13.2781 16.3432V16.8402H17.9172V16.3432C17.9172 16.1144 17.7317 15.929 17.503 15.929H17.4201V15.432C17.4201 15.2032 17.2347 15.0177 17.0059 15.0177V7.64497H17.4615L18 5.82248H14.6864V15.0177H14.1893Z" fill="white"/>
</svg>
