<svg width="68" height="68" viewBox="0 0 68 68" fill="none" xmlns="http://www.w3.org/2000/svg">
<g clip-path="url(#clip0_2066_5138)">
<path fill-rule="evenodd" clip-rule="evenodd" d="M30.94 8.12614C31.2518 7.59109 31.6984 7.14715 32.2353 6.8386C32.7722 6.53005 33.3807 6.36768 34 6.36768C34.6192 6.36768 35.2277 6.53005 35.7646 6.8386C36.3015 7.14715 36.7482 7.59109 37.06 8.12614L44.9791 21.7205L60.3585 25.0525C60.9634 25.1839 61.5233 25.4717 61.9824 25.887C62.4415 26.3023 62.7837 26.8307 62.9749 27.4195C63.1661 28.0083 63.1996 28.6369 63.0721 29.2427C62.9447 29.8485 62.6606 30.4103 62.2483 30.8721L51.765 42.605L53.3516 58.2591C53.4142 58.8756 53.314 59.4976 53.061 60.0632C52.808 60.6287 52.4111 61.118 51.9098 61.4822C51.4086 61.8464 50.8206 62.0727 50.2045 62.1386C49.5884 62.2044 48.9659 62.1075 48.399 61.8575L34 55.5108L19.601 61.8575C19.0341 62.1075 18.4115 62.2044 17.7954 62.1386C17.1794 62.0727 16.5913 61.8464 16.0901 61.4822C15.5888 61.118 15.1919 60.6287 14.9389 60.0632C14.6859 59.4976 14.5857 58.8756 14.6483 58.2591L16.235 42.605L5.75162 30.875C5.3386 30.4132 5.05393 29.8512 4.92603 29.245C4.79813 28.6388 4.83147 28.0097 5.02273 27.4204C5.21399 26.8312 5.55647 26.3024 6.01599 25.8869C6.47551 25.4714 7.03598 25.1837 7.64146 25.0525L23.0208 21.7205L30.94 8.12614ZM34 14.13L27.4465 25.384C27.1987 25.8088 26.8651 26.1773 26.4671 26.4661C26.069 26.7548 25.6152 26.9576 25.1345 27.0613L12.4071 29.8181L21.0828 39.528C21.7458 40.2703 22.066 41.2563 21.9668 42.2451L20.655 55.202L32.572 49.949C33.0219 49.7507 33.5082 49.6483 34 49.6483C34.4917 49.6483 34.978 49.7507 35.428 49.949L47.345 55.202L46.0331 42.2451C45.9833 41.7559 46.0359 41.2616 46.1876 40.7938C46.3393 40.326 46.5868 39.8949 46.9143 39.528L55.5928 29.8181L42.8655 27.0613C42.3847 26.9576 41.9309 26.7548 41.5329 26.4661C41.1348 26.1773 40.8013 25.8088 40.5535 25.384L34 14.13Z" fill="white" fill-opacity="0.6"/>
</g>
<defs>
<clipPath id="clip0_2066_5138">
<rect width="68" height="68" fill="white"/>
</clipPath>
</defs>
</svg>
