<svg width="68" height="69" viewBox="0 0 68 69" fill="none" xmlns="http://www.w3.org/2000/svg">
<path d="M48.875 13.4652V9C48.875 7.87283 48.4272 6.79183 47.6302 5.9948C46.8332 5.19777 45.7522 4.75 44.625 4.75H23.375C22.2478 4.75 21.1668 5.19777 20.3698 5.9948C19.5728 6.79183 19.125 7.87283 19.125 9V13.4652C16.7267 13.9573 14.5715 15.2615 13.0231 17.1579C11.4746 19.0543 10.6276 21.4267 10.625 23.875V53.625C10.625 56.4429 11.7444 59.1454 13.737 61.138C15.7296 63.1306 18.4321 64.25 21.25 64.25H46.75C49.5679 64.25 52.2704 63.1306 54.263 61.138C56.2556 59.1454 57.375 56.4429 57.375 53.625V23.875C57.3724 21.4267 56.5254 19.0543 54.9769 17.1579C53.4285 15.2615 51.2733 13.9573 48.875 13.4652ZM44.625 13.25H40.375V9H44.625V13.25ZM31.875 13.25V9H36.125V13.25H31.875ZM27.625 9V13.25H23.375V9H27.625ZM53.125 53.625C53.125 55.3158 52.4534 56.9373 51.2578 58.1328C50.0623 59.3284 48.4408 60 46.75 60H21.25C19.5592 60 17.9377 59.3284 16.7422 58.1328C15.5466 56.9373 14.875 55.3158 14.875 53.625V23.875C14.875 22.1842 15.5466 20.5627 16.7422 19.3672C17.9377 18.1716 19.5592 17.5 21.25 17.5H46.75C48.4408 17.5 50.0623 18.1716 51.2578 19.3672C52.4534 20.5627 53.125 22.1842 53.125 23.875V53.625ZM42.5 43C42.5 44.6908 41.8284 46.3123 40.6328 47.5078C39.4373 48.7034 37.8158 49.375 36.125 49.375V51.5C36.125 52.0636 35.9011 52.6041 35.5026 53.0026C35.1041 53.4011 34.5636 53.625 34 53.625C33.4364 53.625 32.8959 53.4011 32.4974 53.0026C32.0989 52.6041 31.875 52.0636 31.875 51.5V49.375H29.75C29.1864 49.375 28.6459 49.1511 28.2474 48.7526C27.8489 48.3541 27.625 47.8136 27.625 47.25C27.625 46.6864 27.8489 46.1459 28.2474 45.7474C28.6459 45.3489 29.1864 45.125 29.75 45.125H36.125C36.6886 45.125 37.2291 44.9011 37.6276 44.5026C38.0261 44.1041 38.25 43.5636 38.25 43C38.25 42.4364 38.0261 41.8959 37.6276 41.4974C37.2291 41.0989 36.6886 40.875 36.125 40.875H31.875C30.1842 40.875 28.5627 40.2034 27.3672 39.0078C26.1716 37.8123 25.5 36.1908 25.5 34.5C25.5 32.8092 26.1716 31.1877 27.3672 29.9922C28.5627 28.7966 30.1842 28.125 31.875 28.125V26C31.875 25.4364 32.0989 24.8959 32.4974 24.4974C32.8959 24.0989 33.4364 23.875 34 23.875C34.5636 23.875 35.1041 24.0989 35.5026 24.4974C35.9011 24.8959 36.125 25.4364 36.125 26V28.125H38.25C38.8136 28.125 39.3541 28.3489 39.7526 28.7474C40.1511 29.1459 40.375 29.6864 40.375 30.25C40.375 30.8136 40.1511 31.3541 39.7526 31.7526C39.3541 32.1511 38.8136 32.375 38.25 32.375H31.875C31.3114 32.375 30.7709 32.5989 30.3724 32.9974C29.9739 33.3959 29.75 33.9364 29.75 34.5C29.75 35.0636 29.9739 35.6041 30.3724 36.0026C30.7709 36.4011 31.3114 36.625 31.875 36.625H36.125C37.8158 36.625 39.4373 37.2966 40.6328 38.4922C41.8284 39.6877 42.5 41.3092 42.5 43Z" fill="white" fill-opacity="0.6"/>
</svg>
